<svg xmlns="http://www.w3.org/2000/svg" width="466" height="466" viewBox="0 0 466 466" version="1.1"><path d="M 231.528 73.250 L 231.118 74.500 229.951 80.500 L 228.783 86.500 225.398 97.717 L 222.013 108.935 216.917 121.717 L 211.820 134.500 200.499 158 L 189.178 181.500 185.207 191.500 L 181.235 201.500 178.118 211.262 L 175 221.024 175 222.897 L 175 224.770 177.314 226.286 L 179.627 227.802 182.490 218.151 L 185.352 208.500 190.291 196 L 195.231 183.500 206.988 159 L 218.745 134.500 224.387 119.797 L 230.029 105.093 233.373 92.797 L 236.716 80.500 237.370 76.250 L 238.024 72 234.980 72 L 231.937 72 231.528 73.250 M 215.010 78.750 L 213.877 84.500 210.445 96.812 L 207.013 109.124 201.917 122.721 L 196.822 136.318 188.502 154.409 L 180.183 172.500 176.222 182.500 L 172.262 192.500 170.157 198.500 L 168.051 204.500 166.610 209.293 L 165.170 214.086 167.482 216.774 L 169.795 219.463 172.504 210.481 L 175.214 201.500 180.721 187.500 L 186.228 173.500 193.488 158 L 200.748 142.500 206.287 128 L 211.827 113.500 214.443 104.853 L 217.058 96.206 219.520 85.353 L 221.982 74.500 221.991 73.750 L 222 73 219.071 73 L 216.142 73 215.010 78.750 M 245.503 80.632 L 243.805 88.264 239.574 100.882 L 235.343 113.500 231.568 122 L 227.792 130.500 219.182 147.500 L 210.572 164.500 204.909 176.028 L 199.245 187.556 194.713 199.028 L 190.181 210.500 187.681 218.500 L 185.180 226.500 184.621 229.052 L 184.061 231.605 186.984 233.332 L 189.907 235.058 191.049 230.779 L 192.190 226.500 195.196 217 L 198.201 207.500 203.690 194.500 L 209.179 181.500 222.001 156.500 L 234.822 131.500 239.302 120.500 L 243.782 109.500 247.308 98.500 L 250.834 87.500 252.129 81.190 L 253.425 74.881 251.962 73.956 L 250.500 73.031 248.850 73.015 L 247.201 73 245.503 80.632 M 200.866 78.015 L 199.232 78.970 198.519 83.735 L 197.806 88.500 194.376 100.424 L 190.946 112.349 186.880 123.924 L 182.814 135.500 175.783 152 L 168.751 168.500 162.876 184.256 L 157 200.012 157.022 201.256 L 157.044 202.500 158.960 204.993 L 160.876 207.487 161.419 205.993 L 161.962 204.500 165.899 193 L 169.836 181.500 176.994 164.500 L 184.153 147.500 189.044 134.847 L 193.935 122.193 197.396 110.773 L 200.858 99.352 202.975 89.926 L 205.092 80.500 205.452 78.750 L 205.813 77 204.156 77.030 L 202.500 77.061 200.866 78.015 M 261.605 78.250 L 261.273 79.500 258.060 90.500 L 254.848 101.500 249.859 113.396 L 244.870 125.292 239.346 136.307 L 233.822 147.322 231.563 150.911 L 229.305 154.500 222.775 166.500 L 216.244 178.500 210.515 191 L 204.786 203.500 200.436 216.500 L 196.085 229.500 195.448 233.546 L 194.810 237.592 197.534 238.834 L 200.258 240.075 200.519 239.787 L 200.779 239.500 203.363 230 L 205.947 220.500 210.506 208.500 L 215.066 196.500 223.535 179.651 L 232.005 162.802 233.873 160.151 L 235.741 157.500 242.821 144 L 249.902 130.500 254.891 118.862 L 259.880 107.225 263.296 96.862 L 266.712 86.500 267.403 82.743 L 268.093 78.986 265.482 77.993 L 262.870 77 262.404 77 L 261.937 77 261.605 78.250 M 275.553 84.189 L 275.122 85.500 271.930 95 L 268.739 104.500 264.802 113.500 L 260.864 122.500 255.056 133.500 L 249.248 144.500 240.512 158.988 L 231.776 173.475 225.523 185.988 L 219.270 198.500 215.516 207.921 L 211.763 217.341 208.381 228.832 L 205 240.323 205 240.994 L 205 241.664 208.445 242.722 L 211.890 243.779 213.416 237.070 L 214.942 230.360 218.525 220.065 L 222.109 209.770 226.513 199.970 L 230.918 190.170 236.606 179.835 L 242.294 169.500 250.177 156.202 L 258.059 142.903 264.424 130.202 L 270.788 117.500 273.524 111 L 276.261 104.500 279.130 96.252 L 282 88.004 282 87.217 L 282 86.431 278.992 84.654 L 275.984 82.878 275.553 84.189 M 184.407 86.772 L 182.314 88.500 180.550 95.500 L 178.786 102.500 175.803 112.500 L 172.821 122.500 170.285 130 L 167.748 137.500 159.984 157.500 L 152.220 177.500 150.967 181.698 L 149.714 185.896 150.973 188.936 L 152.232 191.975 152.971 191.518 L 153.709 191.062 155.980 184.281 L 158.251 177.500 166.005 157.500 L 173.760 137.500 177.909 124.703 L 182.058 111.906 185.029 100.045 L 188 88.183 188 86.592 L 188 85 187.250 85.022 L 186.500 85.044 184.407 86.772 M 286.073 98.750 L 283.664 105.500 275.534 121.500 L 267.404 137.500 255.473 156.500 L 243.542 175.500 235.446 191.500 L 227.351 207.500 224.078 216.500 L 220.806 225.500 218.395 234.909 L 215.984 244.318 216.242 244.566 L 216.500 244.815 219.838 245.157 L 223.175 245.500 225.529 236.244 L 227.882 226.989 232.569 215.244 L 237.256 203.500 241.592 194.841 L 245.928 186.183 251.145 177.341 L 256.362 168.500 265.775 153.500 L 275.188 138.500 283.372 122 L 291.556 105.500 292.942 101.239 L 294.328 96.978 291.989 94.489 L 289.651 92 289.067 92 L 288.482 92 286.073 98.750 M 165.654 103.567 L 162.808 107.133 158.830 120.317 L 154.852 133.500 152.898 139.301 L 150.944 145.103 148.472 151.671 L 146 158.238 146 164.819 L 146 171.400 146.887 170.450 L 147.775 169.500 152.822 155.500 L 157.870 141.500 159.872 135.468 L 161.874 129.436 165.321 116.968 L 168.768 104.500 169.290 102.250 L 169.813 100 169.156 100 L 168.500 100 165.654 103.567 M 296.500 109.776 L 293.500 116.497 286.809 128.184 L 280.118 139.871 270.229 154.685 L 260.339 169.500 255.128 178.351 L 249.917 187.203 244.867 197.265 L 239.817 207.328 235.871 217.414 L 231.925 227.500 229.963 234.938 L 228 242.377 228 244.188 L 228 246 231.339 246 L 234.678 246 236.810 238.034 L 238.942 230.067 242.597 220.284 L 246.252 210.500 250.756 201.500 L 255.260 192.500 262.772 180 L 270.284 167.500 276.526 158.500 L 282.769 149.500 288.438 140.126 L 294.107 130.753 299.489 120.022 L 304.871 109.290 302.686 106.162 L 300.500 103.035 300 103.044 L 299.500 103.054 296.500 109.776 M 301.863 127.253 L 295.227 138.500 284.007 154.500 L 272.787 170.500 265.727 182 L 258.667 193.500 253.374 204.500 L 248.081 215.500 244.149 227.500 L 240.217 239.500 239.633 242.750 L 239.050 246 241.775 245.985 L 244.500 245.969 245.554 245.235 L 246.608 244.500 250.368 232.500 L 254.127 220.500 261.505 205.458 L 268.883 190.415 278.221 176.458 L 287.558 162.500 297.114 148.500 L 306.670 134.500 309.859 128.835 L 313.049 123.171 311.339 119.585 L 309.630 116 309.065 116.003 L 308.500 116.006 301.863 127.253 M 310.722 135.985 L 306.944 141.858 297.819 154.179 L 288.694 166.500 279.786 180 L 270.878 193.500 265.004 205.500 L 259.130 217.500 255.714 227.500 L 252.298 237.500 251.674 240.750 L 251.050 244 253.275 243.930 L 255.500 243.859 257.378 243.122 L 259.255 242.384 261.662 233.942 L 264.069 225.500 271.476 210.500 L 278.883 195.500 286.053 184.522 L 293.224 173.544 301.396 162.522 L 309.568 151.500 313.918 145.265 L 318.268 139.030 317.004 134.515 L 315.740 130 315.120 130.056 L 314.500 130.111 310.722 135.985 M 312.500 152.699 L 306.500 160.306 299.158 170.403 L 291.817 180.500 286.267 189.469 L 280.716 198.437 275.431 208.969 L 270.146 219.500 267.073 228.330 L 264 237.159 264 239.031 L 264 240.902 268.163 239.038 L 272.326 237.175 275.133 229.475 L 277.940 221.776 283.220 211.141 L 288.500 200.506 297.147 187.448 L 305.794 174.391 313.353 164.721 L 320.912 155.051 320.317 150.025 L 319.721 145 319.111 145.046 L 318.500 145.092 312.500 152.699 M 312.230 170.250 L 305.320 179.500 300.305 187 L 295.290 194.500 290.155 203.618 L 285.021 212.737 280.924 222.949 L 276.827 233.160 277.361 233.694 L 277.895 234.228 281.263 232.146 L 284.632 230.065 286.233 228.282 L 287.834 226.500 294.345 213.476 L 300.856 200.452 308.201 189.976 L 315.547 179.500 317.679 176.500 L 319.812 173.500 320.456 167.250 L 321.099 161 320.120 161 L 319.140 161 312.230 170.250 M 313.922 185.250 L 310.832 189.500 305.539 198.040 L 300.246 206.581 297.575 211.853 L 294.903 217.125 293.889 219.812 L 292.875 222.500 297.010 218.500 L 301.145 214.500 305.605 207.817 L 310.065 201.133 312.922 194.817 L 315.780 188.500 316.809 184.750 L 317.839 181 317.426 181 L 317.013 181 313.922 185.250 M 50.332 265.774 L 49.164 266.517 61.631 299.508 L 74.099 332.500 75.604 334.798 L 77.109 337.095 80.304 339.044 L 83.500 340.993 87.882 340.996 L 92.264 341 95.528 338.982 L 98.793 336.965 100.224 334.732 L 101.655 332.500 107.755 316 L 113.855 299.500 119.843 283 L 125.831 266.500 123.833 265.752 L 121.835 265.003 119.167 265.642 L 116.500 266.281 113.847 267.616 L 111.193 268.952 109.211 272.226 L 107.228 275.500 102.017 290 L 96.806 304.500 92.825 315.500 L 88.844 326.500 88.101 327.271 L 87.358 328.042 77.516 301.519 L 67.675 274.995 65.817 271.939 L 63.959 268.884 59.729 266.964 L 55.500 265.044 53.500 265.037 L 51.500 265.031 50.332 265.774 M 352.635 268.073 L 350 270.145 350 273.418 L 350 276.690 351.829 278.345 L 353.657 280 356.106 280 L 358.555 280 360.777 278.443 L 363 276.887 362.985 273.693 L 362.969 270.500 362.235 269.400 L 361.500 268.299 359.316 267.150 L 357.131 266 356.201 266 L 355.270 266 352.635 268.073 M 244 279.430 L 244 291.860 240.757 290.930 L 237.513 290 233.438 290 L 229.363 290 224.414 291.470 L 219.465 292.939 215.781 296.720 L 212.098 300.500 210.405 304.500 L 208.712 308.500 208.689 315.624 L 208.667 322.749 211.083 327.617 L 213.500 332.485 217.729 335.667 L 221.958 338.850 227.707 340.043 L 233.456 341.236 239.091 340.725 L 244.727 340.214 249.577 338.069 L 254.427 335.924 256.213 334.307 L 258 332.690 257.978 306.095 L 257.956 279.500 256.036 275.271 L 254.116 271.041 250.808 269.024 L 247.500 267.007 245.750 267.004 L 244 267 244 279.430 M 322 297.099 L 322 327.198 323.623 330.619 L 325.247 334.039 327.934 335.953 L 330.622 337.867 333.311 338.542 L 336 339.217 336 308.559 L 336 277.901 334.536 275.069 L 333.072 272.238 329.959 269.619 L 326.847 267 324.423 267 L 322 267 322 297.099 M 133.816 291.581 L 129.133 293.022 125.104 297.132 L 121.075 301.241 119.811 304.871 L 118.546 308.500 118.562 315.500 L 118.578 322.500 120.922 327.340 L 123.265 332.180 127.319 335.116 L 131.372 338.052 136.861 339.648 L 142.350 341.244 148.933 340.773 L 155.516 340.302 159.008 338.511 L 162.500 336.721 163.235 335.610 L 163.969 334.500 163.985 331.950 L 164 329.400 162.967 328.367 L 161.933 327.333 156.217 329.272 L 150.500 331.211 145.173 330.670 L 139.845 330.129 137.436 328.550 L 135.028 326.972 133.378 324.455 L 131.729 321.938 132.115 321.562 L 132.500 321.186 148.857 318.728 L 165.215 316.271 166.150 314.885 L 167.086 313.500 166.562 309.247 L 166.037 304.994 164.041 301.081 L 162.045 297.168 159.089 295.063 L 156.132 292.958 151.940 291.479 L 147.749 290 143.124 290.070 L 138.500 290.139 133.816 291.581 M 190.500 290.680 L 188.500 291.128 183.911 292.591 L 179.323 294.053 176.566 296.931 L 173.808 299.809 174.154 314.334 L 174.500 328.858 176.592 331.679 L 178.684 334.500 181.990 336.750 L 185.296 339 186.648 339 L 188 339 188 321.449 L 188 303.898 191.468 302.449 L 194.936 301 200.859 301 L 206.783 301 207.416 298.479 L 208.048 295.959 206.963 293.932 L 205.878 291.904 203.374 290.952 L 200.870 290 196.685 290.116 L 192.500 290.232 190.500 290.680 M 277.565 291.402 L 272.631 292.785 271.315 294.583 L 270 296.382 270 298 L 270 299.618 271.250 301.298 L 272.500 302.977 277.409 301.489 L 282.318 300 286.691 300 L 291.064 300 294.497 301.434 L 297.929 302.868 298.585 305.481 L 299.240 308.093 298.618 308.715 L 297.996 309.337 287.575 310.603 L 277.155 311.869 274.033 313.483 L 270.912 315.097 268.900 318.299 L 266.889 321.500 267.292 326.193 L 267.695 330.886 269.432 333.537 L 271.169 336.187 275.834 338.263 L 280.500 340.339 288.085 340.789 L 295.670 341.238 301.177 339.637 L 306.685 338.036 309.342 335.945 L 312 333.855 312 318.162 L 312 302.469 310.182 298.984 L 308.363 295.500 303.511 293.062 L 298.659 290.624 290.580 290.322 L 282.500 290.020 277.565 291.402 M 349.371 291.475 L 348.805 292.951 349.152 310.904 L 349.500 328.856 351.592 331.678 L 353.684 334.500 356.990 336.750 L 360.296 339 362.240 339 L 364.184 339 363.842 319.571 L 363.500 300.143 361.408 297.321 L 359.316 294.500 356.010 292.250 L 352.704 290 351.321 290 L 349.937 290 349.371 291.475 M 382.218 291.413 L 377.937 292.808 376.468 294.026 L 375 295.245 375 297.431 L 375 299.618 376.250 301.298 L 377.500 302.977 382.409 301.489 L 387.318 300 391.909 300.015 L 396.500 300.029 399 301.294 L 401.500 302.559 402.863 305.401 L 404.225 308.243 403.024 308.985 L 401.823 309.727 394.162 310.371 L 386.500 311.014 382.547 312.110 L 378.594 313.206 375.297 316.503 L 372 319.800 372.004 324.650 L 372.007 329.500 373.965 332.710 L 375.922 335.919 380.211 338.210 L 384.500 340.500 394.500 340.500 L 404.500 340.500 408.188 339.193 L 411.875 337.886 414.438 335.870 L 417 333.855 417 318.314 L 417 302.772 414.816 298.886 L 412.632 295 408.080 292.797 L 403.529 290.593 395.014 290.306 L 386.500 290.019 382.218 291.413 M 137.241 301.325 L 134.983 302.580 133.641 304.540 L 132.298 306.500 131.630 309.250 L 130.962 312 133.231 311.999 L 135.500 311.997 144 310.500 L 152.500 309.003 152.750 309.001 L 153 309 153 306.955 L 153 304.909 150.545 302.455 L 148.091 300 143.795 300.035 L 139.500 300.071 137.241 301.325 M 228.763 302.565 L 226.025 304.051 224.513 306.976 L 223 309.901 223 315.500 L 223 321.099 224.517 324.033 L 226.034 326.966 228.967 328.483 L 231.901 330 236.016 330 L 240.131 330 242.066 328.965 L 244 327.930 244 315.081 L 244 302.233 241.750 301.630 L 239.500 301.027 235.500 301.054 L 231.500 301.080 228.763 302.565 M 288.692 319.043 L 283.885 319.851 282.442 321.048 L 281 322.245 281 325.066 L 281 327.887 283.223 329.443 L 285.445 331 289.657 331 L 293.870 331 296.435 330.025 L 299 329.050 299 323.525 L 299 318 296.250 318.118 L 293.500 318.235 288.692 319.043 M 393.612 318.945 L 388.724 319.623 386.955 321.808 L 385.185 323.993 385.717 326.027 L 386.249 328.061 388.347 329.531 L 390.445 331 394.657 331 L 398.870 331 401.435 330.025 L 404 329.050 404 323.525 L 404 318 401.250 318.134 L 398.500 318.267 393.612 318.945 M 211 365.401 L 211 380.949 213.950 382.474 L 216.901 384 220.700 383.996 L 224.500 383.993 227.699 382.042 L 230.898 380.091 232.031 375.886 L 233.163 371.682 232.537 368.345 L 231.911 365.008 229.542 362.254 L 227.173 359.500 221.131 359.500 L 215.089 359.500 214.795 355.009 L 214.500 350.518 212.750 350.186 L 211 349.853 211 365.401 M 237 352 L 237 354 239 354 L 241 354 241 352 L 241 350 239 350 L 237 350 237 352 M 237 369.418 L 237 379.836 237.607 381.418 L 238.214 383 239.607 383 L 241 383 241 372.200 L 241 361.400 239.800 360.200 L 238.600 359 237.800 359 L 237 359 237 369.418 M 250.117 360.631 L 247.789 362.261 246.394 365.599 L 245 368.936 245 371.567 L 245 374.198 246.635 377.643 L 248.270 381.088 251.085 382.544 L 253.901 384 257.935 384 L 261.968 384 265.160 381.149 L 268.351 378.297 268.794 372.167 L 269.238 366.038 265.719 362.519 L 262.200 359 257.323 359 L 252.445 359 250.117 360.631 M 275.954 361.750 L 272.877 364.500 272.322 368.633 L 271.768 372.767 272.948 376.341 L 274.127 379.916 277.432 381.958 L 280.736 384 285.257 384 L 289.778 384 292.139 382.086 L 294.500 380.172 293.885 379.554 L 293.269 378.936 288.839 380.121 L 284.409 381.305 281.547 379.903 L 278.684 378.500 277.592 376.722 L 276.500 374.943 277.896 374.072 L 279.292 373.202 285.820 372.503 L 292.349 371.803 293.674 371.295 L 295 370.786 295 368.827 L 295 366.869 293.883 364.684 L 292.766 362.500 290.633 360.772 L 288.500 359.044 283.766 359.022 L 279.032 359 275.954 361.750 M 301 360.294 L 298.500 361.559 298.500 372.016 L 298.500 382.473 300.250 382.810 L 302 383.147 302 373.190 L 302 363.233 304.250 362.630 L 306.500 362.027 309.128 362.014 L 311.755 362 313.128 363.648 L 314.500 365.296 315 373.888 L 315.500 382.481 317.250 382.814 L 319 383.147 319 373.528 L 319 363.909 316.545 361.455 L 314.091 359 308.795 359.015 L 303.500 359.029 301 360.294 M 328.241 360.325 L 325.983 361.580 324.641 363.540 L 323.298 365.500 322.621 368.287 L 321.943 371.075 322.960 374.853 L 323.978 378.630 326.481 380.982 L 328.985 383.334 334.349 383.779 L 339.713 384.224 341.857 383.077 L 344 381.930 344 380.465 L 344 379 343.065 379 L 342.130 379 339.442 380.022 L 336.753 381.044 333.320 380.400 L 329.886 379.756 328.272 377.293 L 326.658 374.829 327.975 374.016 L 329.292 373.202 335.820 372.503 L 342.349 371.803 343.674 371.295 L 345 370.786 345 367.816 L 345 364.846 342.077 361.923 L 339.154 359 334.827 359.035 L 330.500 359.071 328.241 360.325 M 352 360.270 L 349.500 361.559 349.500 372.016 L 349.500 382.473 351.250 382.810 L 353 383.147 353 373.190 L 353 363.233 355.250 362.630 L 357.500 362.027 360.833 362.014 L 364.167 362 363.755 360.750 L 363.344 359.500 358.922 359.240 L 354.500 358.980 352 360.270 M 370.256 360.029 L 368.013 360.931 366.010 364.215 L 364.007 367.500 364.004 371.102 L 364 374.704 366.284 378.102 L 368.567 381.500 372.353 382.443 L 376.138 383.386 379.069 382.280 L 382 381.174 382 384.087 L 382 387 379.883 389.117 L 377.766 391.234 373.633 390.727 L 369.500 390.221 367.750 389.503 L 366 388.786 366 390.358 L 366 391.930 367.934 392.965 L 369.869 394 375.011 394 L 380.154 394 383.077 391.077 L 386 388.154 386 375.103 L 386 362.051 383.050 360.526 L 380.099 359 376.300 359.063 L 372.500 359.127 370.256 360.029 M 390 359.383 L 390 359.766 393.878 368.475 L 397.755 377.184 399.284 378.713 L 400.813 380.241 397.974 386.871 L 395.136 393.500 396.674 393.844 L 398.212 394.188 399.211 393.189 L 400.210 392.190 406.649 377.900 L 413.088 363.609 412.794 361.633 L 412.500 359.657 411.412 359.299 L 410.325 358.942 406.413 368.075 L 402.501 377.209 398.287 368.105 L 394.074 359 392.037 359 L 390 359 390 359.383 M 216.750 363.080 L 215 364.099 215 371.491 L 215 378.882 216.068 379.542 L 217.136 380.202 220.591 380.300 L 224.047 380.398 226.273 378.171 L 228.500 375.944 228.500 371.386 L 228.500 366.827 225.694 364.413 L 222.888 362 220.694 362.030 L 218.500 362.061 216.750 363.080 M 251.924 364.581 L 249.500 367.161 249.500 371.667 L 249.500 376.173 252.413 378.679 L 255.326 381.185 258.400 380.570 L 261.473 379.955 262.876 378.552 L 264.279 377.149 264.760 372.149 L 265.240 367.149 262.666 364.575 L 260.091 362 257.220 362 L 254.349 362 251.924 364.581 M 279.153 363.750 L 277.085 365.500 276.486 368.045 L 275.886 370.590 283.443 369.632 L 291 368.673 291 367.972 L 291 367.270 288.927 364.635 L 286.855 362 284.038 362 L 281.222 362 279.153 363.750 M 329.712 363.420 L 327.925 364.775 327.018 367.938 L 326.111 371.100 327.806 370.609 L 329.500 370.119 335.250 369.444 L 341 368.770 341 367.385 L 341 366 339 364 L 337 362 334.250 362.032 L 331.500 362.064 329.712 363.420 M 371.832 363.529 L 369.164 364.978 368.503 367.986 L 367.843 370.993 368.972 374.417 L 370.102 377.840 373.051 378.868 L 376 379.896 379 378.850 L 382 377.804 382 370.937 L 382 364.070 380.066 363.035 L 378.131 362 376.316 362.040 L 374.500 362.080 371.832 363.529" stroke="none" fill="#fffcfc" fill-rule="evenodd"/><path d="" stroke="none" fill="#fcfcfc" fill-rule="evenodd"/></svg>
