<?xml version="1.0" encoding="UTF-8"?>
<svg version="1.1" xmlns="http://www.w3.org/2000/svg" width="224" height="225">
<path d="M0 0 C73.92 0 147.84 0 224 0 C224 74.25 224 148.5 224 225 C150.08 225 76.16 225 0 225 C0 150.75 0 76.5 0 0 Z " fill="#FDFEFD" transform="translate(0,0)"/>
<path d="M0 0 C0.99 0 1.98 0 3 0 C2.67 2.97 2.34 5.94 2 9 C4.51083114 7.74458443 4.87125446 6.49936512 6 4 C6.99 4.33 7.98 4.66 9 5 C8.71517632 6.41805831 8.42181856 7.83440379 8.125 9.25 C7.96257812 10.03890625 7.80015625 10.8278125 7.6328125 11.640625 C7.00849925 13.96831144 6.15161458 15.89031952 5 18 C8.06399866 17.33029489 8.06399866 17.33029489 9.16796875 15.15234375 C9.50441406 14.42144531 9.84085938 13.69054687 10.1875 12.9375 C10.53167969 12.20402344 10.87585938 11.47054687 11.23046875 10.71484375 C11.61138672 9.86599609 11.61138672 9.86599609 12 9 C12.66 9.33 13.32 9.66 14 10 C12.61950363 19.30556815 6.40743676 27.54740149 1.1875 35.1875 C-7.83736701 48.44976852 -15.99389519 62.05332972 -19 78 C-21.97 78 -24.94 78 -28 78 C-28.33 76.68 -28.66 75.36 -29 74 C-29.495 74.99 -29.495 74.99 -30 76 C-30.99 76 -31.98 76 -33 76 C-32.53357896 69.49566269 -31.3333715 64.50157335 -28.5625 58.625 C-28.21558105 57.86695068 -27.86866211 57.10890137 -27.51123047 56.32788086 C-22.89065065 46.38376643 -18.09063897 36.13595846 -12 27 C-11.34 27 -10.68 27 -10 27 C-9.89429687 26.31550781 -9.78859375 25.63101563 -9.6796875 24.92578125 C-8.873675 21.45622171 -7.56811845 18.44349114 -6.125 15.1875 C-3.92538908 10.17428036 -1.85456061 5.15155726 0 0 Z " fill="#DCEAE8" transform="translate(132,41)"/>
<path d="M0 0 C5.141176 1.285294 5.141176 1.285294 7 4 C7.34057617 7.00268555 7.34057617 7.00268555 7.29296875 10.63671875 C7.28330078 11.93544922 7.27363281 13.23417969 7.26367188 14.57226562 C7.23860585 15.94401639 7.21321101 17.31576118 7.1875 18.6875 C7.1724502 20.07094924 7.1587623 21.45441401 7.14648438 22.83789062 C7.11107223 26.22565207 7.06168054 29.61263139 7 33 C1.18203093 35.01242278 -3.85297585 35.94641683 -10 35 C-13.0625 32.625 -13.0625 32.625 -15 30 C-15.66 29.34 -16.32 28.68 -17 28 C-17.80710469 23.30753086 -17.40839567 19.77454352 -15.1875 15.5625 C-13 13 -13 13 -10 11 C-6.64683663 10.73597139 -3.36941342 10.91248277 0 11 C0 7.37 0 3.74 0 0 Z " fill="#2C7E7F" transform="translate(117,129)"/>
<path d="M0 0 C4.37434588 0.48603843 6.15488169 1.68258355 9 5 C10.18847656 7.53369141 10.18847656 7.53369141 11.140625 10.3515625 C11.48867188 11.36734375 11.83671875 12.383125 12.1953125 13.4296875 C12.71738281 15.01136719 12.71738281 15.01136719 13.25 16.625 C13.79527344 18.21828125 13.79527344 18.21828125 14.3515625 19.84375 C17 27.66958412 17 27.66958412 17 30 C17.66 30 18.32 30 19 30 C19.14695312 29.3915625 19.29390625 28.783125 19.4453125 28.15625 C20.99049843 22.11759236 22.8953966 16.27616401 25.0625 10.4375 C25.3198291 9.73496094 25.5771582 9.03242188 25.84228516 8.30859375 C26.94802357 5.38092436 27.76165922 3.23834078 30 1 C32.625 0.875 32.625 0.875 35 1 C34.02404444 6.27554621 32.37924522 11.23017107 30.6875 16.3125 C30.39166016 17.22451172 30.09582031 18.13652344 29.79101562 19.07617188 C25.25400684 32.74599316 25.25400684 32.74599316 22 36 C16.20411664 36.46740995 16.20411664 36.46740995 14 36 C11.35397019 33.03281847 10.10712577 30.00969045 8.80859375 26.28125 C8.42123047 25.18425781 8.03386719 24.08726562 7.63476562 22.95703125 C7.04211914 21.24580078 7.04211914 21.24580078 6.4375 19.5 C5.64672409 17.23881526 4.85384058 14.97836621 4.05859375 12.71875 C3.71111084 11.71779297 3.36362793 10.71683594 3.00561523 9.68554688 C2.07759332 7.04225046 2.07759332 7.04225046 0.87133789 4.83007812 C0 3 0 3 0 0 Z " fill="#177374" transform="translate(24,128)"/>
<path d="M0 0 C2.54878922 1.17244304 4.06297378 2.06297378 6 4 C6.15327434 6.99179723 6.23165249 9.94456324 6.25 12.9375 C6.270625 13.77474609 6.29125 14.61199219 6.3125 15.47460938 C6.31765625 16.27576172 6.3228125 17.07691406 6.328125 17.90234375 C6.34214355 19.00823853 6.34214355 19.00823853 6.35644531 20.13647461 C6.18000488 21.05891968 6.18000488 21.05891968 6 22 C2.35594748 24.42936835 0.401183 24.32947342 -3.9375 24.375 C-5.16339844 24.40335938 -6.38929688 24.43171875 -7.65234375 24.4609375 C-11 24 -11 24 -13.42578125 22.2109375 C-15.63066607 19.11425064 -15.28486944 16.7033027 -15 13 C-9.8531808 9.83272665 -5.841744 9.64949536 0 10 C-0.66 8.68 -1.32 7.36 -2 6 C-5.96 6 -9.92 6 -14 6 C-13.67 4.35 -13.34 2.7 -13 1 C-9.08488053 -0.95755973 -4.27842592 -0.36425271 0 0 Z " fill="#277C7D" transform="translate(194,140)"/>
<path d="M0 0 C0.86625 -0.00257813 1.7325 -0.00515625 2.625 -0.0078125 C5.60863624 0.15903558 7.45633117 0.61338711 9.65625 2.68359375 C11.54662235 6.11813654 11.51375994 9.36567629 11.5 13.1875 C11.52835938 13.90744141 11.55671875 14.62738281 11.5859375 15.36914062 C11.59375 17.47265625 11.59375 17.47265625 11 21.125 C7.58862538 24.25157747 4.45584737 24.53427318 -0.0625 24.5 C-1.08472656 24.50773437 -2.10695312 24.51546875 -3.16015625 24.5234375 C-6.37075839 24.07298163 -7.76815839 23.46236604 -10 21.125 C-10.66259654 18.28931142 -10.28167693 16.08260774 -10 13.125 C-7.37548383 10.50048383 -5.5122172 10.5417132 -1.875 10 C-0.77929688 9.83242187 0.31640625 9.66484375 1.4453125 9.4921875 C2.28835937 9.37101563 3.13140625 9.24984375 4 9.125 C3.67 8.135 3.34 7.145 3 6.125 C-0.96 6.125 -4.92 6.125 -9 6.125 C-8.67 4.475 -8.34 2.825 -8 1.125 C-5.05173237 0.14224412 -3.07347496 -0.00914725 0 0 Z " fill="#157273" transform="translate(139,139.875)"/>
<path d="M0 0 C2.83436308 1.24515372 4.98003027 2.64044116 7 5 C8 8.75 8 8.75 8 12 C5.94077598 14.05922402 1.78291876 13.41427579 -1.0625 13.5625 C-2.20041992 13.62727539 -2.20041992 13.62727539 -3.36132812 13.69335938 C-5.24065438 13.79973633 -7.12030244 13.90039934 -9 14 C-8.52640788 16.07843011 -8.52640788 16.07843011 -7 18 C-3.66024628 18.70788435 -3.66024628 18.70788435 0.125 18.75 C1.40632813 18.80671875 2.68765625 18.8634375 4.0078125 18.921875 C4.99523437 18.94765625 5.98265625 18.9734375 7 19 C6.6875 20.9375 6.6875 20.9375 6 23 C1.36613361 24.54462213 -3.16597554 24.63442261 -8 24 C-11.17739189 22.35291871 -13.37781742 20.24436516 -15 17 C-15.64924988 12.48476222 -16.20625942 7.93810584 -13.71875 3.94140625 C-9.62601912 0.06261357 -5.52437628 -1.42704045 0 0 Z " fill="#287D7D" transform="translate(72,140)"/>
<path d="M0 0 C4 1 4 1 6 3 C6.22705078 5.88916016 6.22705078 5.88916016 6.1953125 9.5390625 C6.18886719 10.84101563 6.18242188 12.14296875 6.17578125 13.484375 C6.15906929 14.86458595 6.14213939 16.24479429 6.125 17.625 C6.11497006 19.01301452 6.10584423 20.40103589 6.09765625 21.7890625 C6.07401863 25.19288026 6.04106867 28.59635506 6 32 C3.23547967 33.38226016 0.9538637 33.09525387 -2.125 33.0625 C-3.22070312 33.05347656 -4.31640625 33.04445312 -5.4453125 33.03515625 C-6.28835937 33.02355469 -7.13140625 33.01195312 -8 33 C-8 32.01 -8 31.02 -8 30 C-6.02 29.67 -4.04 29.34 -2 29 C-2 24.05 -2 19.1 -2 14 C-3.65 14 -5.3 14 -7 14 C-7 13.01 -7 12.02 -7 11 C-4.69 11 -2.38 11 0 11 C0 7.37 0 3.74 0 0 Z " fill="#1B7576" transform="translate(118,130)"/>
<path d="M0 0 C0.99 0 1.98 0 3 0 C3.33661772 4.82485393 2.49505963 6.95691068 0 11 C-0.65006752 12.63609431 -1.27295874 14.28313043 -1.875 15.9375 C-4.46406617 22.32703027 -7.89128052 28.09724128 -11.4375 34 C-20.19372212 48.41681961 -20.19372212 48.41681961 -26.359375 64.0625 C-27 66 -27 66 -28.0390625 68.046875 C-29.31029671 70.63068436 -29.6132281 73.16367276 -30 76 C-30.99 76 -31.98 76 -33 76 C-32.53357896 69.49566269 -31.3333715 64.50157335 -28.5625 58.625 C-28.21558105 57.86695068 -27.86866211 57.10890137 -27.51123047 56.32788086 C-22.89065065 46.38376643 -18.09063897 36.13595846 -12 27 C-11.34 27 -10.68 27 -10 27 C-9.89429687 26.31550781 -9.78859375 25.63101563 -9.6796875 24.92578125 C-8.873675 21.45622171 -7.56811845 18.44349114 -6.125 15.1875 C-3.92538908 10.17428036 -1.85456061 5.15155726 0 0 Z " fill="#4D948A" transform="translate(132,41)"/>
<path d="M0 0 C1.32 0 2.64 0 4 0 C3.44580867 3.60224362 2.79492444 7.18015175 2.0625 10.75 C1.90910156 11.50796875 1.75570312 12.2659375 1.59765625 13.046875 C1 15 1 15 -1 17 C-1.80051689 18.91717995 -2.54151306 20.85943766 -3.25 22.8125 C-5.83277223 29.72045199 -8.82935116 36.34272701 -12 43 C-12.66 43 -13.32 43 -14 43 C-14.17015625 43.54527344 -14.3403125 44.09054688 -14.515625 44.65234375 C-15.77483452 48.5706287 -17.10856999 52.34294413 -18.875 56.0625 C-21.96541254 62.77037217 -23.88610837 69.93925542 -26 77 C-26.99 77 -27.98 77 -29 77 C-28.42899914 71.90037165 -27.28236492 67.36215837 -25.4375 62.5625 C-25.17573975 61.87365723 -24.91397949 61.18481445 -24.64428711 60.47509766 C-21.14237349 51.5039261 -16.66602715 43.00651835 -12.14453125 34.515625 C-6.53339915 23.76405179 -1.6463076 12.09844658 0 0 Z " fill="#60A094" transform="translate(118,35)"/>
<path d="M0 0 C0.66 0 1.32 0 2 0 C2.90943262 17.09733327 -10.94828956 35.6897775 -19.23828125 49.8203125 C-20.96249162 52.93230195 -22.30744815 55.98640549 -23.5625 59.3125 C-23.98402344 60.42753906 -24.40554687 61.54257813 -24.83984375 62.69140625 C-26.16633321 66.47435766 -27.26045392 70.28234694 -28.2265625 74.171875 C-28.48179688 74.77515625 -28.73703125 75.3784375 -29 76 C-30.485 76.495 -30.485 76.495 -32 77 C-31.46603582 71.23576015 -30.30672657 66.37305445 -28.1875 61 C-27.92050293 60.30519531 -27.65350586 59.61039063 -27.37841797 58.89453125 C-25.51336755 54.11246571 -23.44660196 49.51680362 -21 45 C-20.34 45 -19.68 45 -19 45 C-18.88205078 43.98873047 -18.88205078 43.98873047 -18.76171875 42.95703125 C-17.77371588 39.12155343 -15.8374854 36.04577193 -13.8125 32.6875 C-9.17834984 24.75061886 -6.00144737 16.6587209 -3 8 C-2.01367543 5.32797821 -1.00784811 2.66401957 0 0 Z " fill="#599B91" transform="translate(126,38)"/>
<path d="M0 0 C0.66 0.33 1.32 0.66 2 1 C0.61950363 10.30556815 -5.59256324 18.54740149 -10.8125 26.1875 C-19.83736701 39.44976852 -27.99389519 53.05332972 -31 69 C-31.99 69 -32.98 69 -34 69 C-33.59200675 60.97613274 -31.08963187 54.37635358 -28 47 C-27.34 47 -26.68 47 -26 47 C-25.79375 45.865625 -25.5875 44.73125 -25.375 43.5625 C-24.52307094 40.14694394 -23.29986479 37.68319745 -21.2890625 34.80078125 C-13.60665583 23.59544567 -6.19971796 12.10032671 0 0 Z " fill="#418B85" transform="translate(144,50)"/>
<path d="M0 0 C0.99 0.33 1.98 0.66 3 1 C2.79265658 2.33690084 2.55747735 3.66948084 2.3125 5 C2.12107422 6.11375 2.12107422 6.11375 1.92578125 7.25 C0.84188083 10.46968731 -0.75651763 12.95819923 -2.59838867 15.796875 C-5.01527734 19.5958653 -7.14433238 23.55554098 -9.3125 27.5 C-9.76689453 28.32242188 -10.22128906 29.14484375 -10.68945312 29.9921875 C-11.79494628 31.99371195 -12.89842384 33.99631795 -14 36 C-14.66 36 -15.32 36 -16 36 C-16.25136719 36.83660156 -16.50273438 37.67320313 -16.76171875 38.53515625 C-18.1290296 42.36103866 -19.92228255 45.85491964 -21.8125 49.4375 C-25.75114065 57.07085819 -28.54170585 64.77416959 -31 73 C-31.66 73 -32.32 73 -33 73 C-31.66460569 55.639874 -22.01317007 39.82286138 -12.66015625 25.5390625 C-7.89766223 18.25524812 -3.64877313 11.35937187 -1.5078125 2.86328125 C-1 1 -1 1 0 0 Z " fill="#569A8E" transform="translate(138,45)"/>
<path d="M0 0 C0.66 0 1.32 0 2 0 C-0.30524794 15.13577264 -5.53344059 27.69831031 -12.24609375 41.3515625 C-16.13760326 49.28341084 -19.87301329 57.20242497 -22.75 65.5625 C-24.92882562 71.85765125 -24.92882562 71.85765125 -26 74 C-26.66 74 -27.32 74 -28 74 C-27.48594831 69.03083364 -26.76615118 64.70973649 -25 60 C-24.34 60 -23.68 60 -23 60 C-22.76152344 58.71480469 -22.52304688 57.42960937 -22.27734375 56.10546875 C-21.09317158 50.78450514 -18.97667326 46.17594758 -16.5625 41.3125 C-16.16740234 40.49716797 -15.77230469 39.68183594 -15.36523438 38.84179688 C-13.74693506 35.51095452 -12.1021738 32.19833738 -10.40625 28.90625 C-8.70962824 25.39989837 -7.30012687 21.83433922 -5.9375 18.1875 C-5.67364502 17.4855249 -5.40979004 16.7835498 -5.13793945 16.06030273 C-3.30884683 11.09152588 -2.00426557 6.2039216 -1 1 C-0.67 0.67 -0.34 0.34 0 0 Z " fill="#75B09E" transform="translate(112,35)"/>
<path d="M0 0 C1.485 0.495 1.485 0.495 3 1 C2.39231213 3.9114538 1.50399847 6.09425003 -0.07421875 8.609375 C-0.69985718 9.61085571 -0.69985718 9.61085571 -1.33813477 10.63256836 C-1.78342529 11.3313208 -2.22871582 12.03007324 -2.6875 12.75 C-3.14374756 13.47517822 -3.59999512 14.20035645 -4.07006836 14.94750977 C-6.26500189 18.40415016 -8.48239667 21.75245719 -11.0625 24.9375 C-16.35630569 31.99254585 -21.20566032 40.61698095 -24 49 C-24.66 49 -25.32 49 -26 49 C-26.13277344 49.61488281 -26.26554687 50.22976562 -26.40234375 50.86328125 C-26.66724609 52.07564453 -26.66724609 52.07564453 -26.9375 53.3125 C-27.11152344 54.11300781 -27.28554687 54.91351563 -27.46484375 55.73828125 C-28 58 -28 58 -29 61 C-29.66 61 -30.32 61 -31 61 C-29.69854568 48.22449943 -23.59808009 37.44058722 -17.1875 26.5625 C-16.80263428 25.90540039 -16.41776855 25.24830078 -16.02124023 24.57128906 C-15.07341968 23.00997544 -14.04385293 21.49881123 -13 20 C-12.34 20 -11.68 20 -11 20 C-10.75378906 19.31292969 -10.50757813 18.62585938 -10.25390625 17.91796875 C-8.78796562 14.5065742 -6.91748963 11.44010437 -4.9375 8.3125 C-2.33364584 4.23374532 -2.33364584 4.23374532 0 0 Z " fill="#468F88" transform="translate(147,57)"/>
<path d="M0 0 C1.32 0 2.64 0 4 0 C2.43831595 16.78810358 -5.86970951 33.91849741 -13 49 C-16.092753 55.58130475 -18.83595419 62.05227398 -21 69 C-21.66 69 -22.32 69 -23 69 C-21.60397805 58.7705288 -17.68208902 49.22032172 -13.0234375 40.0625 C-6.5502493 27.27972825 -2.67006913 14.03030115 0 0 Z " fill="#6AA997" transform="translate(103,35)"/>
<path d="M0 0 C1.32 0.99 2.64 1.98 4 3 C2.08206085 10.16030616 -1.15867674 16.13784595 -4.86303711 22.50195312 C-6.49851913 25.3132031 -7.96816432 27.90449296 -9 31 C-9.66 31 -10.32 31 -11 31 C-11.26941406 31.84175781 -11.53882812 32.68351562 -11.81640625 33.55078125 C-12.83443236 36.5175042 -13.95798279 39.40748209 -15.15771484 42.30444336 C-17.96958393 49.09465823 -20.30135966 55.8329298 -22 63 C-22.33 63 -22.66 63 -23 63 C-24.54326466 56.59285065 -23.1653863 52.26237613 -20.875 46.1875 C-20.5545874 45.30545898 -20.2341748 44.42341797 -19.90405273 43.51464844 C-17.66723697 37.47016601 -15.2014031 31.60614368 -12 26 C-11.34 26 -10.68 26 -10 26 C-9.62875 24.783125 -9.2575 23.56625 -8.875 22.3125 C-7.1127709 16.97497916 -4.73549814 11.97913419 -2.3046875 6.91796875 C-1.25522948 4.5708276 -0.4977585 2.50700317 0 0 Z " fill="#ECF3F2" transform="translate(116,52)"/>
<path d="M0 0 C0.66 0 1.32 0 2 0 C2.53993581 10.38836497 -2.12552157 17.84787291 -8 26 C-8.99 26.66 -9.98 27.32 -11 28 C-11.66 27.67 -12.32 27.34 -13 27 C-13.103125 27.639375 -13.20625 28.27875 -13.3125 28.9375 C-13.539375 29.618125 -13.76625 30.29875 -14 31 C-14.99 31.33 -15.98 31.66 -17 32 C-16.45958321 27.02968784 -14.81891745 23.14250301 -12.4375 18.8125 C-12.0854248 18.16337646 -11.73334961 17.51425293 -11.37060547 16.84545898 C-8.08724202 10.92302846 -4.50140164 5.08256852 0 0 Z " fill="#277D7B" transform="translate(152,79)"/>
<path d="M0 0 C1.98 0 3.96 0 6 0 C5.67 0.66 5.34 1.32 5 2 C4.34 1.67 3.68 1.34 3 1 C2.7628125 1.83789062 2.525625 2.67578125 2.28125 3.5390625 C0.80010399 7.53996299 -1.17675151 10.81961333 -3.5 14.375 C-3.90347656 15.01566406 -4.30695313 15.65632813 -4.72265625 16.31640625 C-5.7566681 17.91690644 -6.87226771 19.46409595 -8 21 C-8.66 21 -9.32 21 -10 21 C-10.25265625 21.69222656 -10.5053125 22.38445312 -10.765625 23.09765625 C-12.17120871 26.4025572 -13.91011765 29.35320111 -15.75 32.4375 C-21.16341444 41.71869889 -25.87983651 51.39918256 -28 62 C-27.34 62.33 -26.68 62.66 -26 63 C-26.99 63 -27.98 63 -29 63 C-29 62.01 -29 61.02 -29 60 C-29.66 60 -30.32 60 -31 60 C-28.38512371 41.69586595 -14.91229252 24.28590744 -4.9453125 9.12109375 C-3.09486331 6.15220038 -1.50830374 3.15415719 0 0 Z " fill="#E1ECEB" transform="translate(144,56)"/>
<path d="M0 0 C0.33 0.66 0.66 1.32 1 2 C1.99 1.67 2.98 1.34 4 1 C2.14932119 7.33331102 -0.30808917 12.75821953 -3.75 18.375 C-4.41588135 19.4877832 -4.41588135 19.4877832 -5.09521484 20.62304688 C-7.51518272 24.64553236 -10.0291608 28.58829761 -12.625 32.5 C-16.87644175 39.04378683 -19.97137437 46.16548952 -23.1496582 53.2734375 C-24 55 -24 55 -26 58 C-27.80631357 52.70068271 -25.27218366 48.83151141 -23 44 C-19.11069861 36.2389166 -14.88195665 28.75363506 -10.3125 21.375 C-6.72719259 15.57620134 -4.13513826 9.86487378 -1.875 3.4140625 C-1 1 -1 1 0 0 Z " fill="#D8E7E6" transform="translate(133,48)"/>
<path d="M0 0 C4.875 1.75 4.875 1.75 6 4 C6.08573394 6.25120742 6.10712188 8.50499303 6.09765625 10.7578125 C6.0962413 11.42086395 6.09482635 12.08391541 6.09336853 12.76705933 C6.08776754 14.88641863 6.075215 17.00567259 6.0625 19.125 C6.05748512 20.56119639 6.05292219 21.99739444 6.04882812 23.43359375 C6.03779782 26.95576345 6.02053259 30.47787145 6 34 C4.125 33.75 4.125 33.75 2 33 C-0.50354051 29.67972261 -0.23069916 26.29970443 -0.1953125 22.265625 C-0.18886719 20.97011719 -0.18242187 19.67460937 -0.17578125 18.33984375 C-0.15907193 16.97655981 -0.14214206 15.61327856 -0.125 14.25 C-0.1149634 12.87110015 -0.10583873 11.49219335 -0.09765625 10.11328125 C-0.07408093 6.74201118 -0.0411727 3.37109364 0 0 Z " fill="#0B6C6D" transform="translate(155,129)"/>
<path d="M0 0 C0.99 0 1.98 0 3 0 C3 1.32 3 2.64 3 4 C2.34 4 1.68 4 1 4 C0.75378906 4.71414062 0.50757813 5.42828125 0.25390625 6.1640625 C-1.15109978 9.34173969 -2.90277163 11.65534205 -5.0625 14.375 C-13.70748863 25.70675643 -22.52771933 38.7328803 -25 53 C-25.99 53 -26.98 53 -28 53 C-27.49651764 47.06420796 -26.23440476 42.3943334 -23.75 37 C-23.43716064 36.30519531 -23.12432129 35.61039063 -22.80200195 34.89453125 C-20.55557385 29.99365152 -18.18535835 25.36849146 -15 21 C-14.34 21 -13.68 21 -13 21 C-12.7628125 20.31164062 -12.525625 19.62328125 -12.28125 18.9140625 C-10.7491408 15.42944828 -8.70202947 12.45643421 -6.5 9.375 C-5.69780304 8.23705926 -4.89571598 7.09904104 -4.09375 5.9609375 C-3.4028125 4.98382813 -2.711875 4.00671875 -2 3 C-1.34 2.01 -0.68 1.02 0 0 Z " fill="#428C86" transform="translate(150,64)"/>
<path d="M0 0 C0 3.3 0 6.6 0 10 C-2.31 10 -4.62 10 -7 10 C-7 10.66 -7 11.32 -7 12 C-4.03 12.33 -1.06 12.66 2 13 C2 13.33 2 13.66 2 14 C-0.24893954 14.10823773 -2.49937575 14.18569645 -4.75 14.25 C-6.62945312 14.31960937 -6.62945312 14.31960937 -8.546875 14.390625 C-12 14 -12 14 -14.4375 12.21875 C-16.62307836 9.11522873 -16.28457531 6.69947904 -16 3 C-10.51220899 -0.46597327 -6.29810865 -0.25532873 0 0 Z " fill="#257B7B" transform="translate(195,150)"/>
<path d="M0 0 C0.66 0.66 1.32 1.32 2 2 C1.01 4.31 0.02 6.62 -1 9 C-1.66 9 -2.32 9 -3 9 C-3.27021973 9.70938721 -3.54043945 10.41877441 -3.81884766 11.1496582 C-5.02967012 14.07159956 -6.41473891 16.81266581 -7.8984375 19.60546875 C-8.74148437 21.20551758 -8.74148437 21.20551758 -9.6015625 22.83789062 C-10.77406743 25.05247867 -11.94851432 27.26603976 -13.125 29.47851562 C-18.0296349 38.80068127 -21.9940141 47.63573953 -24 58 C-25.32 57.34 -26.64 56.68 -28 56 C-26.33024075 50.64918058 -24.42925647 45.52156105 -22.0859375 40.4296875 C-20.88991018 37.75368394 -19.82732283 35.03834367 -18.75 32.3125 C-16.30214405 26.39245452 -13.23862724 20.92757079 -9.99609375 15.421875 C-7.61865014 11.34625739 -5.41172737 7.1928303 -3.2265625 3.01171875 C-2 1 -2 1 0 0 Z " fill="#E3EFEC" transform="translate(123,59)"/>
<path d="M0 0 C0.66 0 1.32 0 2 0 C2.36767522 4.46572195 2.36767522 4.46572195 0.75 6.81640625 C-0.11625 7.68072266 -0.11625 7.68072266 -1 8.5625 C-10.17031237 18.47235369 -15.79092466 30.08093874 -21.0078125 42.375 C-22 44 -22 44 -25 45 C-22.70081514 31.20489083 -14.77415413 20.28370933 -7 9 C-6.34 8.01 -5.68 7.02 -5 6 C-4.34 6 -3.68 6 -3 6 C-2.690625 5.38125 -2.38125 4.7625 -2.0625 4.125 C-1.375 2.75 -0.6875 1.375 0 0 Z " fill="#2B807D" transform="translate(152,71)"/>
<path d="M0 0 C1.22589844 0.01353516 1.22589844 0.01353516 2.4765625 0.02734375 C3.41628906 0.04474609 3.41628906 0.04474609 4.375 0.0625 C4.705 1.7125 5.035 3.3625 5.375 5.0625 C2.735 5.3925 0.095 5.7225 -2.625 6.0625 C-2.955 11.6725 -3.285 17.2825 -3.625 23.0625 C-7.625 22.0625 -7.625 22.0625 -9.625 19.0625 C-9.8460457 16.51329762 -9.94962779 14.10933588 -9.9375 11.5625 C-9.96166992 10.54736328 -9.96166992 10.54736328 -9.98632812 9.51171875 C-9.99120843 4.56308744 -9.99120843 4.56308744 -8.23046875 2.15625 C-5.30847506 0.16559736 -3.50055545 -0.05000793 0 0 Z " fill="#187374" transform="translate(93.625,139.9375)"/>
<path d="M0 0 C0.66 -0.66 1.32 -1.32 2 -2 C5.125 -2.125 5.125 -2.125 8 -2 C8 -1.34 8 -0.68 8 0 C6.35 0 4.7 0 3 0 C3 2.97 3 5.94 3 9 C-1.43897052 10.10974263 -4.44831257 10.36124503 -9 10 C-11.48141307 7.90630772 -11.89581585 6.61022146 -12.4375 3.4375 C-12 1 -12 1 -10.3125 -0.875 C-6.52434334 -2.71788703 -3.82649712 -1.27549904 0 0 Z " fill="#EAF2F0" transform="translate(167,175)"/>
<path d="M0 0 C-0.33 0.33 -0.66 0.66 -1 1 C1.97 1.495 1.97 1.495 5 2 C5.125 4.875 5.125 4.875 5 8 C2.64046906 10.35953094 1.22104383 10.49141413 -2 11 C0.64 11.33 3.28 11.66 6 12 C6 12.33 6 12.66 6 13 C4.08404032 13.08133791 2.16708068 13.13934367 0.25 13.1875 C-0.81734375 13.22230469 -1.8846875 13.25710937 -2.984375 13.29296875 C-6.35433416 12.96557634 -7.69599006 12.45834554 -10 10 C-10.66259654 7.16431142 -10.28167693 4.95760774 -10 2 C-7.20652751 -0.79347249 -3.65536205 -1.82768103 0 0 Z " fill="#1F7778" transform="translate(139,151)"/>
<path d="M0 0 C0.66 0 1.32 0 2 0 C1.37713992 6.30187842 0.05678896 12.16733716 -1.6875 18.25 C-1.9544165 19.18384521 -2.22133301 20.11769043 -2.49633789 21.07983398 C-4.25460074 27.01313249 -6.42160057 32.30814692 -9.41015625 37.73828125 C-13.02695252 45.15848981 -15.39779882 53.17714722 -18 61 C-18.66 61 -19.32 61 -20 61 C-20.20450178 56.60927394 -19.69012957 53.49455155 -18.0234375 49.4375 C-17.39236084 47.88180298 -17.39236084 47.88180298 -16.74853516 46.29467773 C-16.29526855 45.20743408 -15.84200195 44.12019043 -15.375 43 C-14.68929932 41.31596069 -14.68929932 41.31596069 -13.98974609 39.59790039 C-11.63129177 33.83107495 -9.1795796 28.11946442 -6.625 22.4375 C-3.45128783 15.19746912 -1.6983951 7.69273076 0 0 Z " fill="#84BDA5" transform="translate(96,38)"/>
<path d="M0 0 C1.485 0.495 1.485 0.495 3 1 C3 3 3 3 1.66650391 4.39233398 C1.11655762 4.92286377 0.56661133 5.45339355 0 6 C-0.91610438 7.2202993 -1.80295996 8.46294198 -2.6640625 9.72265625 C-3.14617187 10.42583984 -3.62828125 11.12902344 -4.125 11.85351562 C-4.62 12.58248047 -5.115 13.31144531 -5.625 14.0625 C-6.12773437 14.79533203 -6.63046875 15.52816406 -7.1484375 16.28320312 C-9.75281627 20.03500105 -9.75281627 20.03500105 -12 24 C-12.66 24 -13.32 24 -14 24 C-14.2475 24.66257812 -14.495 25.32515625 -14.75 26.0078125 C-16.60460945 30.44728387 -18.85351942 34.67757889 -21.078125 38.94140625 C-24.05448841 44.77196891 -26.40556157 50.30823401 -26 57 C-26.66 57 -27.32 57 -28 57 C-28.33 56.34 -28.66 55.68 -29 55 C-29.66 55.66 -30.32 56.32 -31 57 C-30.68950274 55.56206608 -30.3765224 54.1246682 -30.0625 52.6875 C-29.88847656 51.88699219 -29.71445313 51.08648437 -29.53515625 50.26171875 C-29 48 -29 48 -28 45 C-27.34 45 -26.68 45 -26 45 C-25.9175 44.34128906 -25.835 43.68257812 -25.75 43.00390625 C-24.74346596 38.97252773 -22.95173072 35.5891515 -21 31.9375 C-20.59990723 31.18452637 -20.19981445 30.43155273 -19.78759766 29.65576172 C-16.68102773 23.95167653 -13.17486258 18.90883266 -9.15234375 13.8046875 C-5.77915553 9.40913551 -2.89068499 4.72176197 0 0 Z " fill="#CDE0DE" transform="translate(149,61)"/>
<path d="M0 0 C0.99 0.66 1.98 1.32 3 2 C1.67896209 5.52723826 0.08050314 8.83044451 -1.66503906 12.16577148 C-5.69525005 19.88841789 -8.89203769 27.67164031 -11.56518555 35.96728516 C-11.82726807 36.73991699 -12.08935059 37.51254883 -12.359375 38.30859375 C-12.58077148 38.99751709 -12.80216797 39.68644043 -13.03027344 40.39624023 C-14 42 -14 42 -16.10253906 42.73071289 C-16.72870117 42.81957764 -17.35486328 42.90844238 -18 43 C-17.01537537 39.99430377 -16.01240434 36.99639026 -15 34 C-14.6596875 32.97132812 -14.319375 31.94265625 -13.96875 30.8828125 C-10.36908592 20.35136285 -6.19778584 9.29667876 0 0 Z " fill="#E7F1EE" transform="translate(104,66)"/>
<path d="M0 0 C0.66 0 1.32 0 2 0 C1.17494474 7.02382567 0.22064071 13.26991042 -2.9296875 19.62890625 C-4.2278559 22.50477566 -5.10354348 25.41284159 -6 28.4375 C-7.68641234 34.11420297 -9.713267 39.54258679 -12 45 C-12.6690861 46.66569686 -13.3363721 48.33212104 -14 50 C-14.66 50 -15.32 50 -16 50 C-16.40455829 46.05555668 -15.8766932 43.39410271 -14.203125 39.8828125 C-12.01293283 35.11298523 -10.21375546 30.27073924 -8.5 25.3125 C-8.19884277 24.44906982 -7.89768555 23.58563965 -7.58740234 22.69604492 C-5.396416 16.33935594 -3.46588398 9.95301885 -1.7265625 3.45703125 C-1 1 -1 1 0 0 Z " fill="#8CC0AB" transform="translate(88,42)"/>
<path d="M0 0 C3.5 -0.3125 3.5 -0.3125 7 0 C9.69101234 2.69101234 9.29887549 4.19075946 9.3125 7.9375 C9.32925781 8.99839844 9.34601563 10.05929688 9.36328125 11.15234375 C9 14 9 14 7.7109375 15.8671875 C4.94535046 17.69828394 2.21187025 17.18180398 -1 17 C-1 16.34 -1 15.68 -1 15 C2.465 14.505 2.465 14.505 6 14 C6.33 13.01 6.66 12.02 7 11 C5.329375 11.061875 5.329375 11.061875 3.625 11.125 C0 11 0 11 -2 9 C-2.34490322 4.94738713 -2.30163882 3.45245824 0 0 Z " fill="#8FBEB0" transform="translate(177,173)"/>
<path d="M0 0 C0.02685938 2.14576637 0.04633088 4.29162645 0.0625 6.4375 C0.07410156 7.63246094 0.08570312 8.82742187 0.09765625 10.05859375 C0 13 0 13 -1 14 C-6.36467975 14.46649389 -6.36467975 14.46649389 -8.67578125 12.76953125 C-10.35980281 10.51920156 -10.37214507 9.22246607 -10.3125 6.4375 C-10.30863281 5.65246094 -10.30476563 4.86742187 -10.30078125 4.05859375 C-10 2 -10 2 -8 0 C-4.9345311 -1.12400527 -3.09319508 -0.86065888 0 0 Z " fill="#EEF4F4" transform="translate(117,146)"/>
<path d="M0 0 C0.66 0 1.32 0 2 0 C2 1.32 2 2.64 2 4 C3.3921875 3.87625 3.3921875 3.87625 4.8125 3.75 C8 4 8 4 9.875 5.6875 C11.20607683 8.42360236 11.46233717 9.99480842 11 13 C9.9375 14.8125 9.9375 14.8125 8 16 C4.375 16.25 4.375 16.25 1 16 C0 15 0 15 -0.09765625 11.62109375 C-0.09098369 10.22652923 -0.07902532 8.83198257 -0.0625 7.4375 C-0.05798828 6.72658203 -0.05347656 6.01566406 -0.04882812 5.28320312 C-0.03700864 3.52209987 -0.01907263 1.76103964 0 0 Z " fill="#8DBCAE" transform="translate(101,169)"/>
<path d="M0 0 C2.4375 0.375 2.4375 0.375 5 1 C6.20029908 3.40059817 6.11459743 4.89360649 6.09765625 7.5703125 C6.09282227 8.91416016 6.09282227 8.91416016 6.08789062 10.28515625 C6.07951172 11.22230469 6.07113281 12.15945312 6.0625 13.125 C6.05798828 14.06988281 6.05347656 15.01476562 6.04882812 15.98828125 C6.03702357 18.32558387 6.02055759 20.66276061 6 23 C5.01 23 4.02 23 3 23 C-0.7975456 18.65362496 -0.35496792 14.12806036 -0.1875 8.6875 C-0.17396484 7.85154297 -0.16042969 7.01558594 -0.14648438 6.15429688 C-0.11131217 4.10258502 -0.05751048 2.05120725 0 0 Z " fill="#0B6B6C" transform="translate(168,140)"/>
<path d="M0 0 C1.8125 1.125 1.8125 1.125 3 3 C3.39365568 6.14924548 3.52854531 8.11909116 1.875 10.875 C-0.84218824 12.50531294 -2.89652746 12.33015665 -6 12 C-8 10 -8 10 -8.3125 6.5625 C-8 3 -8 3 -6.8125 1.0625 C-4.33950907 -0.38718434 -2.82115488 -0.42317323 0 0 Z " fill="#8FBDB1" transform="translate(126,173)"/>
<path d="M0 0 C0.66 0.33 1.32 0.66 2 1 C0.56781473 5.82052603 -1.0752954 10.30263948 -3.4375 14.75 C-6.46815688 20.57253472 -8.23219374 26.69910395 -10 33 C-11.53125 31.7109375 -11.53125 31.7109375 -13 30 C-11.52022523 20.01152031 -6.89493614 9.77712687 -2 1 C-1.34 0.67 -0.68 0.34 0 0 Z " fill="#EDF4F2" transform="translate(91,68)"/>
<path d="M0 0 C1.15099998 3.45299995 1.01831328 4.55340121 0 8 C-0.93437189 9.60178038 -1.87116401 11.20223374 -2.82421875 12.79296875 C-6.71180354 20.09026245 -9.23923537 28.17094761 -11.2265625 36.171875 C-11.48179688 36.77515625 -11.73703125 37.3784375 -12 38 C-13.485 38.495 -13.485 38.495 -15 39 C-14.46603582 33.23576015 -13.30672657 28.37305445 -11.1875 23 C-10.92050293 22.30519531 -10.65350586 21.61039063 -10.37841797 20.89453125 C-8.51336755 16.11246571 -6.44660196 11.51680362 -4 7 C-3.34 7 -2.68 7 -2 7 C-1.855625 6.21625 -1.71125 5.4325 -1.5625 4.625 C-1 2 -1 2 0 0 Z " fill="#6DAB99" transform="translate(109,76)"/>
<path d="M0 0 C0.33 0.66 0.66 1.32 1 2 C1.66 2.33 2.32 2.66 3 3 C2.34 3 1.68 3 1 3 C0.690625 3.61875 0.38125 4.2375 0.0625 4.875 C-0.625 6.25 -1.3125 7.625 -2 9 C-2.66 9 -3.32 9 -4 9 C-4.27021973 9.56517334 -4.54043945 10.13034668 -4.81884766 10.71264648 C-6.05562686 13.10772386 -7.43767705 15.33248273 -8.8984375 17.59765625 C-9.74148437 18.92506836 -9.74148437 18.92506836 -10.6015625 20.27929688 C-11.76921434 22.11179012 -12.9435372 23.9400524 -14.125 25.76367188 C-17.6304167 31.31391498 -20.15378113 36.59003731 -22.06494141 42.88061523 C-22.37351074 43.58001221 -22.68208008 44.27940918 -23 45 C-24.485 45.495 -24.485 45.495 -26 46 C-22.08079186 32.62858401 -15.3830439 21.63681975 -7.15283203 10.57470703 C-4.63806084 7.13966379 -2.32153012 3.56722921 0 0 Z " fill="#CFE1E0" transform="translate(151,68)"/>
<path d="M0 0 C4.01908552 -0.53082262 6.29357799 -0.38392501 9.875 1.5625 C12.59362688 4.68092495 12.84605027 6.92033218 13 11 C12 12 12 12 9.71484375 12.09765625 C8.34005859 12.08025391 8.34005859 12.08025391 6.9375 12.0625 C6.01839844 12.05347656 5.09929687 12.04445312 4.15234375 12.03515625 C3.44207031 12.02355469 2.73179688 12.01195312 2 12 C2 11.01 2 10.02 2 9 C3.32 8.67 4.64 8.34 6 8 C5.43637698 5.95163118 5.43637698 5.95163118 4 4 C0.94091587 3.18415432 0.94091587 3.18415432 -2 3 C-1.34 2.01 -0.68 1.02 0 0 Z " fill="#1A7576" transform="translate(67,141)"/>
<path d="M0 0 C0.66 0 1.32 0 2 0 C0.15748484 12.09756663 -3.08031495 23.2523751 -9 34 C-9.99 34 -10.98 34 -12 34 C-11.70867187 33.27941406 -11.41734375 32.55882812 -11.1171875 31.81640625 C-7.74950874 23.32655876 -4.85492585 14.67273693 -2 6 C-1.33403194 3.99976727 -0.66755273 1.99970443 0 0 Z " fill="#76ADA1" transform="translate(112,35)"/>
<path d="M0 0 C0.99 0.33 1.98 0.66 3 1 C2.11460151 6.70883804 0.68418377 11.02280065 -2.55859375 15.8046875 C-5.33205629 20.02876865 -7.61801473 24.54707909 -10 29 C-10.99 29 -11.98 29 -13 29 C-11.70042244 24.62928143 -9.98425435 21.10397467 -7.5625 17.25 C-4.73496564 12.5413617 -2.84738589 8.17918325 -1.5078125 2.86328125 C-1 1 -1 1 0 0 Z " fill="#488F89" transform="translate(138,45)"/>
<path d="M0 0 C0.66 0.99 1.32 1.98 2 3 C1.3125 5.265625 1.3125 5.265625 0 8 C-0.7115625 9.60101563 -0.7115625 9.60101563 -1.4375 11.234375 C-1.953125 12.39453125 -2.46875 13.5546875 -3 14.75 C-5.34391335 20.108121 -7.00547173 25.23173602 -8 31 C-8.99 31 -9.98 31 -11 31 C-10.59200675 22.97613274 -8.08963187 16.37635358 -5 9 C-4.34 9 -3.68 9 -3 9 C-2.86722656 8.43410156 -2.73445313 7.86820312 -2.59765625 7.28515625 C-2.42105469 6.55167969 -2.24445313 5.81820312 -2.0625 5.0625 C-1.88847656 4.33160156 -1.71445313 3.60070312 -1.53515625 2.84765625 C-1 1 -1 1 0 0 Z " fill="#55998E" transform="translate(121,88)"/>
<path d="M0 0 C0.99 0.33 1.98 0.66 3 1 C2.38882269 3.93835244 1.47827757 6.1387735 -0.109375 8.6796875 C-0.53476563 9.36160156 -0.96015625 10.04351562 -1.3984375 10.74609375 C-1.84445313 11.44863281 -2.29046875 12.15117188 -2.75 12.875 C-3.18054688 13.56980469 -3.61109375 14.26460937 -4.0546875 14.98046875 C-6.75888546 19.27965773 -9.66301822 23.17087342 -13 27 C-14.04449911 23.86650268 -13.93423645 23.01031744 -13 20 C-12.34 20 -11.68 20 -11 20 C-10.75378906 19.31292969 -10.50757813 18.62585938 -10.25390625 17.91796875 C-8.78796562 14.5065742 -6.91748963 11.44010437 -4.9375 8.3125 C-2.33364584 4.23374532 -2.33364584 4.23374532 0 0 Z " fill="#338380" transform="translate(147,57)"/>
<path d="M0 0 C0.66 0.66 1.32 1.32 2 2 C1.34 2 0.68 2 0 2 C-0.26425781 2.74378906 -0.52851563 3.48757812 -0.80078125 4.25390625 C-1.99280044 6.98351372 -3.25125481 8.69996266 -5.1875 10.9375 C-10.31420869 17.34588587 -16.77910104 26.54118875 -16 35 C-17.485 35.495 -17.485 35.495 -19 36 C-20.1745865 32.5670925 -20.06002416 31.15123204 -18.69921875 27.72265625 C-18.04621671 26.49311021 -17.37444469 25.27340962 -16.6875 24.0625 C-16.33155762 23.41514893 -15.97561523 22.76779785 -15.60888672 22.10083008 C-11.27375653 14.41328615 -6.26231009 6.26231009 0 0 Z " fill="#C3DAD9" transform="translate(152,77)"/>
<path d="M0 0 C0.99 0 1.98 0 3 0 C2.38194842 3.56176119 1.43180751 6.7193228 0.0625 10.0625 C-0.27652344 10.89910156 -0.61554688 11.73570313 -0.96484375 12.59765625 C-1.62221154 14.12324564 -2.32620783 15.63020078 -3.08984375 17.10546875 C-4.31967676 19.66542157 -4.61851003 22.20240691 -5 25 C-5.99 25 -6.98 25 -8 25 C-7.83493323 15.75626096 -3.86195292 8.21799381 0 0 Z " fill="#6EAA9C" transform="translate(107,92)"/>
<path d="M0 0 C0.38218767 1.65614657 0.71395102 3.32457024 1 5 C0 6 0 6 -3.5625 6.0625 C-4.696875 6.041875 -5.83125 6.02125 -7 6 C-6.01 7.485 -6.01 7.485 -5 9 C-1.91634129 9.2502157 -1.91634129 9.2502157 1 9 C0.67 9.66 0.34 10.32 0 11 C-5.625 11.25 -5.625 11.25 -9 9 C-9.37650785 5.54867807 -9.60658065 3.07836561 -7.875 0 C-5.06863762 -1.49672661 -2.99840718 -0.73294398 0 0 Z " fill="#9EC6BB" transform="translate(140,174)"/>
<path d="M0 0 C1.24527353 3.7358206 0.65059271 4.51205028 -1 8 C-2.10934173 10.08235472 -3.25734884 12.14444261 -4.4375 14.1875 C-5.03433594 15.23292969 -5.63117188 16.27835938 -6.24609375 17.35546875 C-8 20 -8 20 -11 22 C-12 19 -12 19 -10.99609375 16.58203125 C-7.69783441 10.72121453 -4.22972469 5.23465928 0 0 Z " fill="#BCD6D5" transform="translate(152,85)"/>
<path d="M0 0 C0.33 0.66 0.66 1.32 1 2 C1.66 2 2.32 2 3 2 C1.23177903 7.14772022 -1.62252375 11.6256583 -4.4375 16.25 C-4.92798828 17.07757813 -5.41847656 17.90515625 -5.92382812 18.7578125 C-6.40142578 19.54414062 -6.87902344 20.33046875 -7.37109375 21.140625 C-7.80349365 21.85766602 -8.23589355 22.57470703 -8.68139648 23.31347656 C-10 25 -10 25 -13 26 C-11.60962184 21.27415507 -9.56822154 17.21145125 -7.0625 13 C-4.55328737 8.73573511 -2.1650416 4.45224856 0 0 Z " fill="#E8F1F0" transform="translate(136,57)"/>
<path d="M0 0 C1 1 1 1 1.0625 3.5625 C1.041875 4.366875 1.02125 5.17125 1 6 C-1.64 6 -4.28 6 -7 6 C-5.81476003 7.60414215 -5.81476003 7.60414215 -4 9 C-1.37429296 9.25069913 -1.37429296 9.25069913 1 9 C0.67 9.66 0.34 10.32 0 11 C-2.8125 11.25 -2.8125 11.25 -6 11 C-8.34117508 8.89294243 -8.90930872 7.53119178 -9.4375 4.4375 C-9 2 -9 2 -7.3125 0.125 C-4.40666572 -1.28864911 -3.02691303 -0.98170152 0 0 Z " fill="#92BFB2" transform="translate(164,174)"/>
<path d="M0 0 C0.99 0 1.98 0 3 0 C3 1.32 3 2.64 3 4 C2.34 4 1.68 4 1 4 C0.66355469 5.02673828 0.66355469 5.02673828 0.3203125 6.07421875 C-1.34726301 9.76952662 -3.61155231 12.65484933 -6.125 15.8125 C-6.82689453 16.7087207 -6.82689453 16.7087207 -7.54296875 17.62304688 C-8.69005565 19.08616792 -9.84431234 20.54366297 -11 22 C-11.33 21.34 -11.66 20.68 -12 20 C-9.85184106 13.55552317 -5.95905478 8.45681767 -2 3 C-1.34 2.01 -0.68 1.02 0 0 Z " fill="#257E7E" transform="translate(150,64)"/>
<path d="M0 0 C0.66 0.66 1.32 1.32 2 2 C1.01 4.31 0.02 6.62 -1 9 C-1.66 9 -2.32 9 -3 9 C-3.3403125 9.9590625 -3.3403125 9.9590625 -3.6875 10.9375 C-5.48565826 15.13320261 -7.73904021 19.03900556 -10 23 C-10.66 22.67 -11.32 22.34 -12 22 C-10.52244652 17.05173494 -8.43580326 12.71050424 -6 8.1875 C-5.64421875 7.50751953 -5.2884375 6.82753906 -4.921875 6.12695312 C-2.24842687 1.12421344 -2.24842687 1.12421344 0 0 Z " fill="#F0F6F5" transform="translate(123,59)"/>
<path d="M0 0 C1.140625 1.640625 1.140625 1.640625 2 4 C1.171875 6.734375 1.171875 6.734375 -0.25 9.75 C-2.38735729 14.50227125 -3.92351702 18.91117137 -5 24 C-4.34 24.33 -3.68 24.66 -3 25 C-3.99 25 -4.98 25 -6 25 C-6 24.01 -6 23.02 -6 22 C-6.66 22 -7.32 22 -8 22 C-6.64342375 13.9962001 -3.56911033 7.26168046 0 0 Z " fill="#CEE1DF" transform="translate(121,94)"/>
<path d="M0 0 C1.35642112 4.06926337 0.09079648 6.98734748 -1.125 10.9375 C-1.35147217 11.691521 -1.57794434 12.44554199 -1.8112793 13.22241211 C-3.79649511 19.67213945 -6.215257 25.84986547 -9 32 C-9.33 32 -9.66 32 -10 32 C-9.64825068 25.08226346 -7.87461954 19.57709782 -5.2734375 13.171875 C-4.15504002 10.38617331 -3.16872373 7.6062302 -2.25 4.75 C-1 1 -1 1 0 0 Z " fill="#8BC3A8" transform="translate(80,49)"/>
<path d="M0 0 C0.99 0.33 1.98 0.66 3 1 C1.29064319 6.4777116 -0.69333131 11.69736147 -3.08203125 16.9140625 C-4.24345053 19.55320248 -5.15250753 22.24564948 -6 25 C-6.66 25 -7.32 25 -8 25 C-6.78350557 16.0860322 -3.48395745 8.21688079 0 0 Z " fill="#78B69D" transform="translate(88,79)"/>
<path d="M0 0 C0.99 0.66 1.98 1.32 3 2 C1.57194665 5.60632827 0.10612855 9.19147935 -1.4375 12.75 C-1.84871094 13.71421875 -2.25992188 14.6784375 -2.68359375 15.671875 C-4 18 -4 18 -7 19 C-5.74646681 11.93463111 -3.43796251 6.28543527 0 0 Z " fill="#468E88" transform="translate(134,97)"/>
<path d="M0 0 C0.99 0.33 1.98 0.66 3 1 C2.34 3.31 1.68 5.62 1 8 C0.34 8 -0.32 8 -1 8 C-1.66 11.3 -2.32 14.6 -3 18 C-4.65 18 -6.3 18 -8 18 C-7.34 17.67 -6.68 17.34 -6 17 C-5.45667442 15.14816298 -5.45667442 15.14816298 -5.125 12.9375 C-4.16273804 8.09514948 -2.35827864 4.32351085 0 0 Z " fill="#ECF4F1" transform="translate(88,87)"/>
<path d="M0 0 C0.66 0 1.32 0 2 0 C1.67 1.98 1.34 3.96 1 6 C0.34 6 -0.32 6 -1 6 C-1.103125 6.70125 -1.20625 7.4025 -1.3125 8.125 C-2.09359003 11.39137647 -3.42058743 14.0471852 -5 17 C-5.66 17 -6.32 17 -7 17 C-6.773125 15.80375 -6.54625 14.6075 -6.3125 13.375 C-5.75184819 9.10192406 -6.78384492 6.72314053 -9 3 C-9 2.34 -9 1.68 -9 1 C-8.34 1 -7.68 1 -7 1 C-6.01 2.98 -5.02 4.96 -4 7 C-2.45428722 4.68143083 -1.20381448 2.49361571 0 0 Z " fill="#96C2B6" transform="translate(197,173)"/>
<path d="M0 0 C0.66 0.33 1.32 0.66 2 1 C1.39282831 5.05768401 0.07940719 8.15233502 -1.875 11.75 C-2.38804687 12.71421875 -2.90109375 13.6784375 -3.4296875 14.671875 C-5 17 -5 17 -8 18 C-7.39733215 13.49272353 -5.63400206 10.1412037 -3.4375 6.1875 C-2.9434668 5.2912793 -2.9434668 5.2912793 -2.43945312 4.37695312 C-1.63226733 2.91466002 -0.81695083 1.4568601 0 0 Z " fill="#3A8884" transform="translate(144,50)"/>
<path d="M0 0 C0.04254356 1.99954746 0.04080783 4.00041636 0 6 C-1 7 -1 7 -4.5 7.125 C-8 7 -8 7 -9 6 C-9.04063832 4.33382885 -9.042721 2.66611905 -9 1 C-5.92677456 0.08941469 -3.19902639 -0.08886184 0 0 Z " fill="#DCEAEA" transform="translate(144,153)"/>
<path d="M0 0 C2.95529457 0.36040178 3.75137927 1.02476855 5.5625 3.3125 C5.2325 4.3025 4.9025 5.2925 4.5625 6.3125 C1.2625 6.6425 -2.0375 6.9725 -5.4375 7.3125 C-4.3713843 0.56043388 -4.3713843 0.56043388 0 0 Z " fill="#DCE9E9" transform="translate(68.4375,143.6875)"/>
<path d="M0 0 C2.5 0.125 2.5 0.125 3.5 1.125 C3.54092937 3.45797433 3.54241723 5.79205225 3.5 8.125 C1.125 8.75 1.125 8.75 -1.5 9.125 C-3.5 7.125 -3.5 7.125 -3.6875 4.0625 C-3.43916756 0.17195838 -3.43916756 0.17195838 0 0 Z " fill="#F6FAF9" transform="translate(123.5,174.875)"/>
<path d="M0 0 C0.66 0 1.32 0 2 0 C1.42520775 5.69044324 0.352825 10.86676586 -1.375 16.3125 C-1.58382812 17.01439453 -1.79265625 17.71628906 -2.0078125 18.43945312 C-3.11055607 21.96621532 -3.99952488 24.71016373 -7 27 C-6.39563238 22.40680605 -5.19445781 18.15552355 -3.83203125 13.74609375 C-2.4523308 9.19243452 -1.23186344 4.59546219 0 0 Z " fill="#6BAA97" transform="translate(96,38)"/>
<path d="M0 0 C1.39035371 4.17106112 -0.09769194 7.18206859 -1.4375 11.1875 C-1.68048828 11.93708984 -1.92347656 12.68667969 -2.17382812 13.45898438 C-2.77465056 15.30857501 -3.38629678 17.15464327 -4 19 C-4.99 19 -5.98 19 -7 19 C-6.43736318 12.67033582 -4.65075343 6.78164333 -2 1 C-1.34 0.67 -0.68 0.34 0 0 Z " fill="#70AE9A" transform="translate(96,93)"/>
<path d="M0 0 C2.5 0.125 2.5 0.125 3.5 1.125 C3.625 4.125 3.625 4.125 3.5 7.125 C2.5 8.125 2.5 8.125 0 8.25 C-2.5 8.125 -2.5 8.125 -3.5 7.125 C-3.625 4.125 -3.625 4.125 -3.5 1.125 C-2.5 0.125 -2.5 0.125 0 0 Z " fill="#F2F7F6" transform="translate(180.5,174.875)"/>
<path d="M0 0 C4.70588235 0.70588235 4.70588235 0.70588235 6 2 C6.125 4.5 6.125 4.5 6 7 C5 8 5 8 1.9375 8.0625 C0.968125 8.041875 -0.00125 8.02125 -1 8 C-1.04241723 5.66705225 -1.04092937 3.33297433 -1 1 C-0.67 0.67 -0.34 0.34 0 0 Z " fill="#F6F9F8" transform="translate(104,175)"/>
<path d="M0 0 C2.05078125 0.03255208 4.1015625 0.06510417 6.15234375 0.09765625 C6.19506475 1.7637753 6.19298207 3.4314851 6.15234375 5.09765625 C5.15234375 6.09765625 5.15234375 6.09765625 1.58984375 6.16015625 C0.45546875 6.13953125 -0.67890625 6.11890625 -1.84765625 6.09765625 C-2.22984392 4.44150968 -2.56160727 2.77308601 -2.84765625 1.09765625 C-1.84765625 0.09765625 -1.84765625 0.09765625 0 0 Z " fill="#E5EFEF" transform="translate(187.84765625,153.90234375)"/>
<path d="M0 0 C1.98 0 3.96 0 6 0 C5.67 0.66 5.34 1.32 5 2 C4.34 1.67 3.68 1.34 3 1 C2.773125 1.825 2.54625 2.65 2.3125 3.5 C0.75058943 7.66509486 -1.22850107 11.5000943 -4 15 C-4.66 15 -5.32 15 -6 15 C-5.39644592 11.14974121 -4.23227397 8.13898841 -2.4375 4.6875 C-1.98246094 3.80449219 -1.52742187 2.92148437 -1.05859375 2.01171875 C-0.53458984 1.01591797 -0.53458984 1.01591797 0 0 Z " fill="#E0ECEC" transform="translate(144,56)"/>
<path d="M0 0 C1.22589844 0.01353516 1.22589844 0.01353516 2.4765625 0.02734375 C3.41628906 0.04474609 3.41628906 0.04474609 4.375 0.0625 C4.705 1.7125 5.035 3.3625 5.375 5.0625 C2.34163814 5.29143297 -0.59965051 5.42725845 -3.625 5.0625 C-5.6875 3.0625 -5.6875 3.0625 -6.625 1.0625 C-4.21954362 -0.14022819 -2.67503047 -0.03821472 0 0 Z " fill="#458E8E" transform="translate(93.625,139.9375)"/>
<path d="M0 0 C0.66 0 1.32 0 2 0 C1.37445159 3.86574861 0.20918871 7.07753411 -1.4375 10.625 C-1.86933594 11.56601563 -2.30117187 12.50703125 -2.74609375 13.4765625 C-4 16 -4 16 -6 19 C-7.86675478 13.81855884 -5.18310191 9.72496533 -3 5 C-1.375 1.875 -1.375 1.875 0 0 Z " fill="#E4EFED" transform="translate(113,87)"/>
<path d="M0 0 C0.33 0 0.66 0 1 0 C1 2.97 1 5.94 1 9 C-1.64 9 -4.28 9 -7 9 C-7.66 7.68 -8.32 6.36 -9 5 C-7.329375 4.87625 -7.329375 4.87625 -5.625 4.75 C-1.94246056 4.42126213 -1.94246056 4.42126213 -0.5625 1.9375 C-0.376875 1.298125 -0.19125 0.65875 0 0 Z " fill="#F1F7F5" transform="translate(142,175)"/>
<path d="M0 0 C1.32 0 2.64 0 4 0 C3.35812082 5.13503344 2.31727753 9.9943454 1 15 C0.67 13.68 0.34 12.36 0 11 C-0.66 12.32 -1.32 13.64 -2 15 C-3.53760842 11.92478317 -2.36599236 9.65324882 -1.5625 6.375 C-1.27503906 5.18648437 -0.98757812 3.99796875 -0.69140625 2.7734375 C-0.46324219 1.85820313 -0.23507813 0.94296875 0 0 Z " fill="#99C2B8" transform="translate(103,35)"/>
<path d="M0 0 C0.33 0 0.66 0 1 0 C0.03644647 9.41002278 0.03644647 9.41002278 -1 14 C-0.34 14 0.32 14 1 14 C1.33 12.68 1.66 11.36 2 10 C2 11.65 2 13.3 2 15 C0.68 15 -0.64 15 -2 15 C-3.86911602 12.25129997 -3.99426628 10.8929705 -3.8125 7.5 C-3.0335239 4.14441065 -2.35502873 2.45315493 0 0 Z " fill="#C6DDD7" transform="translate(106,104)"/>
<path d="M0 0 C1.32 0 2.64 0 4 0 C2.45730076 4.72065967 0.92205381 9.41664092 -1 14 C-1.66 14 -2.32 14 -3 14 C-2.48594831 9.03083364 -1.76615118 4.70973649 0 0 Z " fill="#88BCA9" transform="translate(87,95)"/>
<path d="M0 0 C1.13347673 3.40043019 0.96224223 4.6070938 0 8 C-1.375 10.67578125 -1.375 10.67578125 -3 13.3125 C-3.53625 14.19550781 -4.0725 15.07851562 -4.625 15.98828125 C-5.305625 16.98408203 -5.305625 16.98408203 -6 18 C-6.33 18 -6.66 18 -7 18 C-6.53199289 13.94393835 -6.12046792 10.53411321 -4 7 C-3.34 7 -2.68 7 -2 7 C-1.855625 6.21625 -1.71125 5.4325 -1.5625 4.625 C-1 2 -1 2 0 0 Z " fill="#63A395" transform="translate(109,76)"/>
<path d="M0 0 C1.32 0 2.64 0 4 0 C3.44278864 3.62187387 2.7910229 7.2215131 2.0625 10.8125 C1.90910156 11.58207031 1.75570312 12.35164063 1.59765625 13.14453125 C1.40042969 13.75683594 1.20320313 14.36914062 1 15 C0.01 15.495 0.01 15.495 -1 16 C-0.67 14.02 -0.34 12.04 0 10 C-0.99 10.495 -0.99 10.495 -2 11 C-1.34 7.37 -0.68 3.74 0 0 Z " fill="#86B5AE" transform="translate(118,35)"/>
<path d="M0 0 C1 3 1 3 -0.43359375 5.91796875 C-1.09488281 6.99691406 -1.75617188 8.07585937 -2.4375 9.1875 C-3.09621094 10.27417969 -3.75492187 11.36085938 -4.43359375 12.48046875 C-5.20896484 13.72763672 -5.20896484 13.72763672 -6 15 C-7.05833703 11.71699532 -6.99812159 10.99446362 -5.8125 7.5 C-4.15295819 4.29536754 -2.70507655 2.33196254 0 0 Z " fill="#EBF3F2" transform="translate(130,60)"/>
<path d="M0 0 C1.0169313 2.65498232 1.13022151 3.69155375 0.00390625 6.359375 C-0.47175781 7.14828125 -0.94742188 7.9371875 -1.4375 8.75 C-1.91058594 9.54921875 -2.38367188 10.3484375 -2.87109375 11.171875 C-3.24363281 11.77515625 -3.61617188 12.3784375 -4 13 C-4.99 13 -5.98 13 -7 13 C-3.53465347 2.35643564 -3.53465347 2.35643564 0 0 Z " fill="#EEF5F3" transform="translate(112,67)"/>
<path d="M0 0 C0.33 0.66 0.66 1.32 1 2 C1.66 2 2.32 2 3 2 C3 2.99 3 3.98 3 5 C2.34 5 1.68 5 1 5 C0.34 6.98 -0.32 8.96 -1 11 C-1.66 11 -2.32 11 -3 11 C-3.33 11.99 -3.66 12.98 -4 14 C-4.66 13.67 -5.32 13.34 -6 13 C-4.02 8.71 -2.04 4.42 0 0 Z " fill="#D7E7E3" transform="translate(104,78)"/>
<path d="M0 0 C0.99 0.33 1.98 0.66 3 1 C2.74445946 2.46109063 2.46999628 3.91888096 2.1875 5.375 C2.03667969 6.18710937 1.88585937 6.99921875 1.73046875 7.8359375 C1 10 1 10 -2 12 C-3.12377697 8.69564916 -2.89554742 6.9493138 -1.5625 3.75 C-1.27503906 3.04359375 -0.98757812 2.3371875 -0.69140625 1.609375 C-0.46324219 1.07828125 -0.23507813 0.5471875 0 0 Z " fill="#4D928E" transform="translate(138,45)"/>
<path d="M0 0 C0.90105469 0.00902344 1.80210937 0.01804688 2.73046875 0.02734375 C3.41753906 0.03894531 4.10460937 0.05054688 4.8125 0.0625 C4.8125 0.3925 4.8125 0.7225 4.8125 1.0625 C1.1825 1.3925 -2.4475 1.7225 -6.1875 2.0625 C-6.1875 2.7225 -6.1875 3.3825 -6.1875 4.0625 C-3.5475 4.0625 -0.9075 4.0625 1.8125 4.0625 C1.8125 4.3925 1.8125 4.7225 1.8125 5.0625 C-1.8175 5.3925 -5.4475 5.7225 -9.1875 6.0625 C-8.8575 4.4125 -8.5275 2.7625 -8.1875 1.0625 C-5.17259443 0.05753148 -3.14568308 -0.04085303 0 0 Z " fill="#5A9798" transform="translate(139.1875,139.9375)"/>
<path d="M0 0 C1.28497537 3.85492611 0.4052209 5.40346836 -0.9375 9.1875 C-1.31777344 10.27417969 -1.69804688 11.36085938 -2.08984375 12.48046875 C-2.39019531 13.31191406 -2.69054687 14.14335938 -3 15 C-3.66 15 -4.32 15 -5 15 C-4.74322411 13.24788218 -4.46897047 11.49832064 -4.1875 9.75 C-4.03667969 8.77546875 -3.88585937 7.8009375 -3.73046875 6.796875 C-2.96781736 3.87677662 -1.96225899 2.25794185 0 0 Z " fill="#448E84" transform="translate(121,103)"/>
<path d="M0 0 C1 3 1 3 0.00390625 5.26171875 C-0.47175781 6.06222656 -0.94742188 6.86273438 -1.4375 7.6875 C-2.14712891 8.89986328 -2.14712891 8.89986328 -2.87109375 10.13671875 C-3.24363281 10.75160156 -3.61617188 11.36648437 -4 12 C-4.66 12 -5.32 12 -6 12 C-5.39294514 7.87202695 -4.06000669 4.62561178 -2 1 C-1.34 0.67 -0.68 0.34 0 0 Z " fill="#4A9287" transform="translate(118,85)"/>
<path d="M0 0 C0.33 1.32 0.66 2.64 1 4 C2.65 4 4.3 4 6 4 C6 4.33 6 4.66 6 5 C4.35 5 2.7 5 1 5 C1.99 6.485 1.99 6.485 3 8 C6.08365871 8.2502157 6.08365871 8.2502157 9 8 C8.67 8.66 8.34 9.32 8 10 C2.375 10.25 2.375 10.25 -1 8 C-1.25 4.4375 -1.25 4.4375 -1 1 C-0.67 0.67 -0.34 0.34 0 0 Z " fill="#8ABBAD" transform="translate(132,175)"/>
<path d="M0 0 C0.66 0.33 1.32 0.66 2 1 C1.44894091 4.9492568 0.61064629 8.34920174 -1 12 C-1.66 12 -2.32 12 -3 12 C-3.34833144 7.12335991 -2.41685712 4.22949995 0 0 Z " fill="#9DCCB5" transform="translate(75,80)"/>
<path d="M0 0 C0.66 0.66 1.32 1.32 2 2 C0.35 4.97 -1.3 7.94 -3 11 C-3.66 11 -4.32 11 -5 11 C-4.39102647 7.44765442 -3.54266151 4.2668126 -2 1 C-1.34 0.67 -0.68 0.34 0 0 Z " fill="#F3F8F6" transform="translate(94,76)"/>
<path d="M0 0 C0.33 0.66 0.66 1.32 1 2 C1.66 2 2.32 2 3 2 C1.7508258 5.45925163 0.32472205 8.14693203 -2 11 C-2.66 10.67 -3.32 10.34 -4 10 C-2.8905928 6.51329166 -1.73662334 3.22515763 0 0 Z " fill="#D6E5E5" transform="translate(136,57)"/>
<path d="M0 0 C0.66 0 1.32 0 2 0 C1.69024532 1.77131561 1.37709575 3.54203778 1.0625 5.3125 C0.88847656 6.29863281 0.71445313 7.28476562 0.53515625 8.30078125 C0 11 0 11 -1 14 C-1.66 14 -2.32 14 -3 14 C-2.48594831 9.03083364 -1.76615118 4.70973649 0 0 Z " fill="#50978A" transform="translate(112,35)"/>
<path d="M0 0 C1.4540625 0.0309375 1.4540625 0.0309375 2.9375 0.0625 C2.9375 0.7225 2.9375 1.3825 2.9375 2.0625 C1.2875 2.0625 -0.3625 2.0625 -2.0625 2.0625 C-2.0625 5.0325 -2.0625 8.0025 -2.0625 11.0625 C-2.7225 11.0625 -3.3825 11.0625 -4.0625 11.0625 C-4.08938151 9.41675434 -4.10884123 7.77088587 -4.125 6.125 C-4.13660156 5.20847656 -4.14820313 4.29195312 -4.16015625 3.34765625 C-4.00919455 -0.18484756 -3.60673121 0.07360676 0 0 Z " fill="#9FC7BC" transform="translate(172.0625,172.9375)"/>
<path d="M0 0 C0 0.99 0 1.98 0 3 C-3.63 3.33 -7.26 3.66 -11 4 C-11 3.01 -11 2.02 -11 1 C-7.32589215 -0.17571451 -3.83070817 -0.07366746 0 0 Z " fill="#076A6B" transform="translate(192,141)"/>
<path d="M0 0 C0.99 0.66 1.98 1.32 3 2 C1.125 6.75 1.125 6.75 0 9 C-2.0625 9.625 -2.0625 9.625 -4 10 C-2.99806563 6.20696275 -2.18975773 3.28463659 0 0 Z " fill="#4E928F" transform="translate(134,97)"/>
<path d="M0 0 C0.99 0 1.98 0 3 0 C1.22054913 4.04420651 -1.39529673 7.46078487 -4 11 C-4.33 10.34 -4.66 9.68 -5 9 C-2.6 2.6 -2.6 2.6 0 0 Z " fill="#247B77" transform="translate(143,75)"/>
<path d="M0 0 C1 2 1 2 0.22265625 4.3828125 C-0.16019531 5.28773437 -0.54304688 6.19265625 -0.9375 7.125 C-1.31777344 8.03507812 -1.69804688 8.94515625 -2.08984375 9.8828125 C-2.39019531 10.58148438 -2.69054687 11.28015625 -3 12 C-3.99 11.67 -4.98 11.34 -6 11 C-5.57576756 9.53775201 -5.13509755 8.08026588 -4.6875 6.625 C-4.44386719 5.81289062 -4.20023437 5.00078125 -3.94921875 4.1640625 C-3 2 -3 2 0 0 Z " fill="#93C2B1" transform="translate(91,62)"/>
<path d="M0 0 C0.99 0.33 1.98 0.66 3 1 C3 3 3 3 1.75 4.3125 C1.1725 4.869375 0.595 5.42625 0 6 C-1.34736973 7.65533995 -2.68334336 9.32012773 -4 11 C-4.66 10.34 -5.32 9.68 -6 9 C-4.02 6.03 -2.04 3.06 0 0 Z " fill="#D7E7E7" transform="translate(149,61)"/>
<path d="M0 0 C0.99 0 1.98 0 3 0 C2.46939601 4.51013391 0.69113883 7.38378219 -2 11 C-2.33 11 -2.66 11 -3 11 C-2.53199289 6.94393835 -2.12046792 3.53411321 0 0 Z " fill="#60A093" transform="translate(107,92)"/>
<path d="M0 0 C1.25 1.5625 1.25 1.5625 2 4 C0.93237266 6.57001015 -0.46544943 8.6530403 -2 11 C-2.99 10.67 -3.98 10.34 -5 10 C-3.66511872 6.40608886 -2.03977277 3.24509304 0 0 Z " fill="#61A097" transform="translate(119,70)"/>
<path d="M0 0 C0.66 0.66 1.32 1.32 2 2 C0.6875 4.9375 0.6875 4.9375 -1 8 C-1.99 8.33 -2.98 8.66 -4 9 C-3.38461538 3.46153846 -3.38461538 3.46153846 -1.4375 1.125 C-0.963125 0.75375 -0.48875 0.3825 0 0 Z " fill="#368580" transform="translate(139,102)"/>
<path d="M0 0 C0.33 0.66 0.66 1.32 1 2 C-0.36328125 4.78515625 -0.36328125 4.78515625 -2.3125 8.0625 C-2.94800781 9.14660156 -3.58351562 10.23070313 -4.23828125 11.34765625 C-6 14 -6 14 -8 15 C-6.51194289 9.19657726 -3.40902445 4.82409121 0 0 Z " fill="#438D8B" transform="translate(150,91)"/>
<path d="M0 0 C1 3 1 3 -0.25 6.125 C-2 9 -2 9 -5 10 C-4.4454626 6.67277559 -3.75986957 3.8986087 -2 1 C-1.34 0.67 -0.68 0.34 0 0 Z " fill="#F0F6F5" transform="translate(100,77)"/>
<path d="M0 0 C0.66 0 1.32 0 2 0 C2.19622241 4.21878192 1.80230168 7.17010894 0 11 C-0.66 10.67 -1.32 10.34 -2 10 C-1.125 2.25 -1.125 2.25 0 0 Z " fill="#448E86" transform="translate(126,38)"/>
<path d="M0 0 C2.475 0.495 2.475 0.495 5 1 C4.67 2.65 4.34 4.3 4 6 C2.68 5.67 1.36 5.34 0 5 C0 3.35 0 1.7 0 0 Z " fill="#147172" transform="translate(169,129)"/>
<path d="M0 0 C0.99 0.33 1.98 0.66 3 1 C2.01 3.97 1.02 6.94 0 10 C-0.99 9.67 -1.98 9.34 -3 9 C-2.01 6.03 -1.02 3.06 0 0 Z " fill="#92C2B1" transform="translate(88,79)"/>
<path d="M0 0 C2.475 0.495 2.475 0.495 5 1 C4.67 1.66 4.34 2.32 4 3 C3.34 3 2.68 3 2 3 C1.67 7.95 1.34 12.9 1 18 C0.67 18 0.34 18 0 18 C0 12.06 0 6.12 0 0 Z " fill="#67A0A1" transform="translate(168,140)"/>
<path d="M0 0 C3.625 -0.1875 3.625 -0.1875 7 0 C7.33 0.66 7.66 1.32 8 2 C7.34 2.66 6.68 3.32 6 4 C3.27130593 3.96712417 0.7033382 3.43602229 -2 3 C-1.34 2.01 -0.68 1.02 0 0 Z " fill="#086C6D" transform="translate(67,141)"/>
<path d="M0 0 C0.99 0.66 1.98 1.32 3 2 C1.87548273 4.9719385 0.77706209 7.33440687 -1 10 C-1.66 9.67 -2.32 9.34 -3 9 C-2.01 6.03 -1.02 3.06 0 0 Z " fill="#75AF9F" transform="translate(101,91)"/>
<path d="M0 0 C0.75 1.5625 0.75 1.5625 1 4 C-0.13084437 6.50286409 -1.52139516 8.67007722 -3 11 C-3.66 11 -4.32 11 -5 11 C-4.32902328 6.80639551 -2.1441606 3.59665648 0 0 Z " fill="#33837D" transform="translate(135,55)"/>
<path d="M0 0 C1.32 0.99 2.64 1.98 4 3 C3.34 5.31 2.68 7.62 2 10 C0.68 9.34 -0.64 8.68 -2 8 C-1.34 5.36 -0.68 2.72 0 0 Z " fill="#DDEAE8" transform="translate(116,52)"/>
<path d="M0 0 C0.99 0.33 1.98 0.66 3 1 C1.515 6.445 1.515 6.445 0 12 C-0.33 12 -0.66 12 -1 12 C-1.92470553 7.28400182 -2.22923777 4.32734391 0 0 Z " fill="#E8F2EF" transform="translate(94,103)"/>
<path d="M0 0 C0 0.99 0 1.98 0 3 C-2.97 3 -5.94 3 -9 3 C-9 2.34 -9 1.68 -9 1 C-6.04335481 -0.4783226 -3.25770263 -0.06032783 0 0 Z " fill="#046869" transform="translate(142,141)"/>
<path d="M0 0 C2 3 2 3 1.625 5.1875 C1.41875 5.785625 1.2125 6.38375 1 7 C0.34 7 -0.32 7 -1 7 C-1 7.66 -1 8.32 -1 9 C-1.99 9.33 -2.98 9.66 -4 10 C-2.8905928 6.51329166 -1.73662334 3.22515763 0 0 Z " fill="#CBE0DC" transform="translate(117,90)"/>
<path d="M0 0 C0.66 0 1.32 0 2 0 C2.25 2.3125 2.25 2.3125 2 5 C0 6.8125 0 6.8125 -2 8 C-2.66 7.34 -3.32 6.68 -4 6 C-2.7260411 3.96166576 -1.38938077 1.96147874 0 0 Z " fill="#308384" transform="translate(152,79)"/>
<path d="M0 0 C1 3 1 3 0.22265625 4.82421875 C-0.8515625 6.54947917 -1.92578125 8.27473958 -3 10 C-3.66 9.67 -4.32 9.34 -5 9 C-3.90931332 5.22454612 -3.0916909 2.52956528 0 0 Z " fill="#F2F7F6" transform="translate(116,72)"/>
<path d="M0 0 C0.33 0.66 0.66 1.32 1 2 C0.22265625 3.7265625 0.22265625 3.7265625 -0.9375 5.625 C-1.618125 6.73875 -2.29875 7.8525 -3 9 C-3.99 9 -4.98 9 -6 9 C-3.2 1.6 -3.2 1.6 0 0 Z " fill="#7FB3A6" transform="translate(106,60)"/>
<path d="M0 0 C0 0.99 0 1.98 0 3 C-3.3 3 -6.6 3 -10 3 C-6.88378718 -0.11621282 -4.21175599 -0.11383124 0 0 Z " fill="#046A6B" transform="translate(77,160)"/>
<path d="M0 0 C0.66 0.99 1.32 1.98 2 3 C0.515 5.475 0.515 5.475 -1 8 C-2.32 7.67 -3.64 7.34 -5 7 C-3.35 4.69 -1.7 2.38 0 0 Z " fill="#CDE0DF" transform="translate(137,69)"/>
<path d="M0 0 C0.99 0 1.98 0 3 0 C3 1.98 3 3.96 3 6 C1.35 6.33 -0.3 6.66 -2 7 C-1.34 4.69 -0.68 2.38 0 0 Z " fill="#6BA4A1" transform="translate(132,41)"/>
<path d="M0 0 C1.65 0 3.3 0 5 0 C5.33 0.99 5.66 1.98 6 3 C3.69 3.33 1.38 3.66 -1 4 C-0.67 2.68 -0.34 1.36 0 0 Z " fill="#F0F6F4" transform="translate(158,175)"/>
<path d="M0 0 C0.66 0 1.32 0 2 0 C1.67 2.97 1.34 5.94 1 9 C-0.32 8.34 -1.64 7.68 -3 7 C-2.01 4.69 -1.02 2.38 0 0 Z " fill="#E8F1EF" transform="translate(98,108)"/>
<path d="M0 0 C1.32 0 2.64 0 4 0 C4 0.66 4 1.32 4 2 C3.34 2 2.68 2 2 2 C1.34 3.65 0.68 5.3 0 7 C-0.99 7 -1.98 7 -3 7 C-1.125 1.125 -1.125 1.125 0 0 Z " fill="#DFEBEA" transform="translate(118,66)"/>
<path d="M0 0 C1.65 0 3.3 0 5 0 C5.33 0.99 5.66 1.98 6 3 C3.69 3.33 1.38 3.66 -1 4 C-0.67 2.68 -0.34 1.36 0 0 Z " fill="#F0F6F4" transform="translate(134,175)"/>
<path d="M0 0 C3.125 -0.1875 3.125 -0.1875 6 0 C6 0.99 6 1.98 6 3 C3.36 3 0.72 3 -2 3 C-1.34 2.01 -0.68 1.02 0 0 Z " fill="#086B6C" transform="translate(93,141)"/>
<path d="M0 0 C1.32 0 2.64 0 4 0 C3.34 2.31 2.68 4.62 2 7 C0.68 7.33 -0.64 7.66 -2 8 C-1.34 5.36 -0.68 2.72 0 0 Z " fill="#D5E6E1" transform="translate(88,101)"/>
<path d="M0 0 C0.94314127 3.41610225 1.08065117 6.45134864 1 10 C-0.65 10 -2.3 10 -4 10 C-3.34 9.67 -2.68 9.34 -2 9 C-1.31270746 6.88153715 -1.31270746 6.88153715 -0.875 4.4375 C-0.70742187 3.61121094 -0.53984375 2.78492187 -0.3671875 1.93359375 C-0.24601562 1.29550781 -0.12484375 0.65742187 0 0 Z " fill="#E0EEE9" transform="translate(84,95)"/>
<path d="M0 0 C0.66 0.33 1.32 0.66 2 1 C1.25 6.75 1.25 6.75 -1 9 C-1.80967438 6.08517222 -2.21845993 4.53886783 -1.0625 1.6875 C-0.711875 1.130625 -0.36125 0.57375 0 0 Z " fill="#DAE9E5" transform="translate(106,87)"/>
<path d="M0 0 C1.32 0 2.64 0 4 0 C3.34 2.97 2.68 5.94 2 9 C1.01 8.01 0.02 7.02 -1 6 C-0.6875 2.8125 -0.6875 2.8125 0 0 Z " fill="#EBF4F0" transform="translate(79,92)"/>
<path d="M0 0 C0.66 0 1.32 0 2 0 C1.38461538 5.53846154 1.38461538 5.53846154 -0.5625 7.875 C-1.036875 8.24625 -1.51125 8.6175 -2 9 C-2.33 8.34 -2.66 7.68 -3 7 C-2.06421005 4.64018187 -1.06652192 2.30368736 0 0 Z " fill="#60A390" transform="translate(98,85)"/>
<path d="M0 0 C0.66 0.66 1.32 1.32 2 2 C1.34 2 0.68 2 0 2 C-0.268125 2.78375 -0.53625 3.5675 -0.8125 4.375 C-2 7 -2 7 -5 9 C-5 4.61031544 -2.87194899 3.23094261 0 0 Z " fill="#B6D2D2" transform="translate(152,77)"/>
<path d="M0 0 C0.66 0.66 1.32 1.32 2 2 C1.56237193 5.17280351 0.22638495 8.05667611 -1 11 C-1.33 11 -1.66 11 -2 11 C-1.85892253 9.54119891 -1.71197585 8.08296449 -1.5625 6.625 C-1.48128906 5.81289062 -1.40007812 5.00078125 -1.31640625 4.1640625 C-1 2 -1 2 0 0 Z " fill="#9BCBB4" transform="translate(72,70)"/>
<path d="M0 0 C0.33 0.66 0.66 1.32 1 2 C1.66 2.33 2.32 2.66 3 3 C0.63707344 5.52588702 -0.66462511 6.88820837 -4 8 C-2.87548273 5.0280615 -1.77706209 2.66559313 0 0 Z " fill="#4E938F" transform="translate(135,66)"/>
<path d="M0 0 C1.13643966 3.40931897 0.86747764 4.00335456 -0.4375 7.1875 C-0.86869141 8.26064453 -0.86869141 8.26064453 -1.30859375 9.35546875 C-1.53675781 9.89816406 -1.76492187 10.44085938 -2 11 C-2.33 11 -2.66 11 -3 11 C-2.88590407 9.54077307 -2.75834456 8.08259402 -2.625 6.625 C-2.55539063 5.81289063 -2.48578125 5.00078125 -2.4140625 4.1640625 C-2 2 -2 2 0 0 Z " fill="#7AB79E" transform="translate(85,55)"/>
<path d="M0 0 C0.66 0 1.32 0 2 0 C3.32 2.64 4.64 5.28 6 8 C5.01 9.485 5.01 9.485 4 11 C3.32880451 9.5437455 2.66318193 8.08492133 2 6.625 C1.62875 5.81289062 1.2575 5.00078125 0.875 4.1640625 C0 2 0 2 0 0 Z " fill="#8CBCAE" transform="translate(188,174)"/>
<path d="M0 0 C0.66 0 1.32 0 2 0 C0.8141763 3.37503669 -0.27573689 5.64722731 -3 8 C-3 3.77471908 -2.74375671 2.95481492 0 0 Z " fill="#D7E7E5" transform="translate(132,77)"/>
<path d="M0 0 C0.33 0.66 0.66 1.32 1 2 C1.66 2.33 2.32 2.66 3 3 C2.34 3 1.68 3 1 3 C0.566875 3.928125 0.566875 3.928125 0.125 4.875 C-1 7 -1 7 -3 9 C-3.33 8.01 -3.66 7.02 -4 6 C-2.0625 2.8125 -2.0625 2.8125 0 0 Z " fill="#BED7D7" transform="translate(151,68)"/>
<path d="M0 0 C0.99 0 1.98 0 3 0 C3 1.32 3 2.64 3 4 C2.34 4 1.68 4 1 4 C0.67 4.66 0.34 5.32 0 6 C-0.66 5.67 -1.32 5.34 -2 5 C-1.34 3.35 -0.68 1.7 0 0 Z " fill="#4C9393" transform="translate(150,64)"/>
<path d="M0 0 C0.99 0.33 1.98 0.66 3 1 C2.67 3.31 2.34 5.62 2 8 C2.66 8.33 3.32 8.66 4 9 C3.01 9 2.02 9 1 9 C1 8.01 1 7.02 1 6 C0.34 6 -0.32 6 -1 6 C-0.67 4.02 -0.34 2.04 0 0 Z " fill="#AFCFC9" transform="translate(114,110)"/>
<path d="M0 0 C0.66 0 1.32 0 2 0 C2.1875 2.375 2.1875 2.375 2 5 C1.01 5.66 0.02 6.32 -1 7 C-1 6.34 -1 5.68 -1 5 C-1.66 4.67 -2.32 4.34 -3 4 C-1.625 2 -1.625 2 0 0 Z " fill="#398888" transform="translate(152,71)"/>
<path d="M0 0 C1.125 1.6875 1.125 1.6875 2 4 C1.125 6.75 1.125 6.75 0 9 C-1.125 7.3125 -1.125 7.3125 -2 5 C-1.125 2.25 -1.125 2.25 0 0 Z " fill="#90C4AD" transform="translate(81,64)"/>
<path d="M0 0 C2.31 0 4.62 0 7 0 C7 0.99 7 1.98 7 3 C4.36 3 1.72 3 -1 3 C-0.67 2.01 -0.34 1.02 0 0 Z " fill="#A4C9BF" transform="translate(177,173)"/>
<path d="M0 0 C2.875 -0.1875 2.875 -0.1875 6 0 C6.66 0.99 7.32 1.98 8 3 C5.33333333 3 2.66666667 3 0 3 C0 2.01 0 1.02 0 0 Z " fill="#A3C9BE" transform="translate(103,173)"/>
<path d="M0 0 C0.33 0 0.66 0 1 0 C0.67 2.31 0.34 4.62 0 7 C-0.99 7.33 -1.98 7.66 -3 8 C-1.125 1.125 -1.125 1.125 0 0 Z " fill="#F3F8F7" transform="translate(92,94)"/>
<path d="M0 0 C1.31223496 3.93670488 0.24296256 6.12488144 -1 10 C-1.144375 9.401875 -1.28875 8.80375 -1.4375 8.1875 C-1.8872439 6.43849596 -2.42892341 4.71322977 -3 3 C-2.01 2.01 -1.02 1.02 0 0 Z " fill="#80B6A6" transform="translate(96,93)"/>
<path d="M0 0 C1 3 1 3 -0.4375 6.1875 C-1.2109375 7.5796875 -1.2109375 7.5796875 -2 9 C-2.33 9 -2.66 9 -3 9 C-2.25 2.25 -2.25 2.25 0 0 Z " fill="#5EA28F" transform="translate(101,68)"/>
<path d="M0 0 C1.46726798 3.81489674 0.43336419 6.29011622 -1 10 C-1.66 10 -2.32 10 -3 10 C-2.25 3.375 -2.25 3.375 0 0 Z " fill="#32827D" transform="translate(132,45)"/>
<path d="M0 0 C0.33 0 0.66 0 1 0 C1.36923077 5.53846154 1.36923077 5.53846154 -0.5 7.875 C-1.2425 8.431875 -1.2425 8.431875 -2 9 C-2 7.02 -2 5.04 -2 3 C-1.34 3 -0.68 3 0 3 C0 2.01 0 1.02 0 0 Z " fill="#D6E6E3" transform="translate(123,103)"/>
<path d="M0 0 C-0.66 2.31 -1.32 4.62 -2 7 C-2.99 6.34 -3.98 5.68 -5 5 C-4.625 3.0625 -4.625 3.0625 -4 1 C-2 0 -2 0 0 0 Z " fill="#5A9B93" transform="translate(125,99)"/>
<path d="M0 0 C0.66 0 1.32 0 2 0 C1.25 5.75 1.25 5.75 -1 8 C-1.04241723 5.66705225 -1.04092937 3.33297433 -1 1 C-0.67 0.67 -0.34 0.34 0 0 Z " fill="#5DA18E" transform="translate(98,100)"/>
<path d="M0 0 C1.03348696 3.10046087 1.17755913 4.05610218 0 7 C-0.99 7.33 -1.98 7.66 -3 8 C-3 6.68 -3 5.36 -3 4 C-2.34 4 -1.68 4 -1 4 C-0.67 2.68 -0.34 1.36 0 0 Z " fill="#398681" transform="translate(138,81)"/>
<path d="M0 0 C0.99 0.33 1.98 0.66 3 1 C2.42655063 3.86724686 2.1385485 4.8614515 0 7 C-1.125 2.25 -1.125 2.25 0 0 Z " fill="#398989" transform="translate(147,57)"/>
</svg>
